<svg xmlns="http://www.w3.org/2000/svg" width="100" height="100" fill="#4f46e5" viewBox="0 0 256 256">
    <rect width="256" height="256" fill="none"></rect>
    <path d="M32,128v56a16,16,0,0,0,16,16H64a16,16,0,0,0,16-16V144a16,16,0,0,0-16-16Z" opacity="0.2"></path>
    <path d="M225.5,128h-32a16,16,0,0,0-16,16v40a16,16,0,0,0,16,16h16a16,16,0,0,0,16-16Z" opacity="0.2"></path>
    <path d="M225.5,128h-32a16,16,0,0,0-16,16v40a16,16,0,0,0,16,16h16a16,16,0,0,0,16-16V128a96,96,0,0,0-96.8-96A96,96,0,0,0,32,128v56a16,16,0,0,0,16,16H64a16,16,0,0,0,16-16V144a16,16,0,0,0-16-16H32" fill="none" stroke="#4f46e5" stroke-linecap="round" stroke-linejoin="round" stroke-width="16"></path>
    <path d="M225.5,184v24a32,32,0,0,1-32,32H136" fill="none" stroke="#4f46e5" stroke-linecap="round" stroke-linejoin="round" stroke-width="16"></path>
</svg>