<?xml version="1.0" encoding="UTF-8"?>
<svg width="845px" height="603px" viewBox="0 0 845 603" version="1.1" xmlns="http://www.w3.org/2000/svg" xmlns:xlink="http://www.w3.org/1999/xlink">
    <title>persona-community</title>
    <g id="airlyft" stroke="none" stroke-width="1" fill="none" fill-rule="evenodd">
        <g id="persona-community">
            <path d="M358.908936,253.506117 C349.808936,260.106117 351.208936,273.106117 354.008936,282.506117 C358.008936,296.406117 366.108936,309.206117 375.208936,320.306117 C391.508936,340.006117 419.108936,362.006117 444.508936,344.806117 C467.208936,329.406117 481.508936,298.406117 486.408936,272.306117 C487.908936,264.206117 490.008936,252.206117 482.808936,246.106117 C472.208936,237.106117 453.508936,238.806117 440.708936,239.906117 C432.308936,240.706117 424.208936,243.206117 415.808936,242.006117 C396.608936,239.306117 375.008936,241.806117 358.908936,253.506117" id="Accent" fill="#FFDC5F"></path>
            <g id="Ink" fill="#000000" fill-rule="nonzero">
                <path d="M750.908936,356.406117 C732.508936,379.806117 701.108936,383.506117 673.308936,383.306117 C656.557844,383.359217 639.842754,381.751352 623.408936,378.506117 C614.566013,376.658069 605.848656,374.253281 597.308936,371.306117 C591.708936,369.406117 583.308936,368.406117 580.908936,362.406117 C574.608936,346.506117 579.208936,326.506117 581.808936,310.306117 C583.108936,302.106117 584.108936,293.806117 585.408936,285.606117 C586.208936,280.306117 586.608936,274.506117 588.808936,269.606117 C591.408936,263.806117 594.708936,265.006117 600.108936,266.606117 C607.608936,268.806117 615.408936,269.706117 623.108936,270.906117 C642.008936,273.806117 658.508936,279.606117 675.708936,287.906117 C692.708936,296.106117 709.208936,304.106117 724.308936,315.506117 C731.870614,321.119093 738.75059,327.596339 744.808936,334.806117 C749.608936,340.206117 756.708936,349.006117 750.908936,356.406117 M670.408936,460.206117 C670.308936,462.706117 641.408936,455.106117 637.608936,454.306117 C612.708936,448.706117 587.208936,442.306117 563.708936,432.206117 C541.708936,422.806117 522.308936,412.006117 505.008936,395.206117 C497.031204,387.445679 489.581256,379.160535 482.708936,370.406117 C479.208936,366.006117 474.508936,366.506117 470.608936,362.806117 C467.108936,359.506117 464.408936,356.806117 465.508936,351.806117 C474.208936,354.106117 490.308936,368.506117 499.408936,361.206117 C504.608936,357.006117 497.408936,352.706117 494.108936,350.306117 C487.996766,345.677173 482.487364,340.302148 477.708936,334.306117 C486.091034,335.946416 494.115478,339.061389 501.408936,343.506117 C504.708936,345.506117 515.908936,352.606117 518.508936,345.806117 C520.108936,341.606117 512.508936,336.406117 510.108936,334.106117 C504.308936,328.406117 498.008936,321.806117 494.908936,314.206117 C502.508936,312.406117 509.708936,318.306117 515.008936,323.106117 C520.808936,328.406117 527.908936,334.006117 532.708936,340.206117 C535.208936,343.406117 535.708936,347.106117 537.708936,350.506117 C539.908936,354.406117 543.408936,357.706117 546.808936,360.506117 C553.308936,366.006117 560.808936,370.006117 568.608936,373.406117 C586.539985,380.930294 605.207948,386.560846 624.308936,390.206117 C633.471786,392.005704 642.773111,393.009444 652.108936,393.206117 C659.408936,393.406117 662.708936,395.606117 665.508936,402.406117 C672.908936,420.906117 671.508936,441.006117 670.408936,460.206117 M453.108936,321.106117 C448.908936,325.106117 443.408936,327.506117 438.908936,331.406117 C434.92271,334.920531 430.677361,338.129613 426.208936,341.006117 C421.608936,343.906117 418.108936,341.906117 413.908936,339.206117 C409.008936,336.106117 403.408936,334.906117 398.308936,332.106117 C380.808936,322.606117 359.508936,299.306117 362.708936,277.906117 C364.108936,268.806117 368.808936,259.906117 377.308936,255.806117 C385.008936,252.106117 396.308936,250.006117 404.508936,253.106117 C409.208936,254.906117 412.508936,258.706117 415.508936,262.606117 C419.008936,267.106117 420.308936,266.406117 423.908936,262.106117 C430.208936,254.406117 440.708936,247.706117 451.108936,247.806117 C456.247469,247.888817 461.316022,249.011382 466.008936,251.106117 C466.608936,251.406117 467.008936,252.306117 467.608936,252.606117 C468.408936,253.006117 469.608936,252.206117 470.208936,252.506117 C471.608936,253.406117 472.908936,256.006117 473.708936,257.406117 C476.808936,262.906117 482.508936,273.606117 476.808936,278.206117 C476.808936,278.206117 477.108936,284.406117 477.008936,285.106117 C476.50423,288.670715 475.387831,292.121404 473.708936,295.306117 C468.608936,305.606117 461.308936,313.506117 453.108936,321.106117 M461.508936,407.406117 C457.508936,408.606117 453.208936,396.106117 457.008936,394.106117 C460.708936,392.206117 465.108936,406.306117 461.508936,407.406117 M398.508936,392.406117 C397.108936,397.106117 396.508936,402.506117 393.108936,406.406117 C390.008936,402.706117 389.708936,395.906117 392.708936,392.106117 C394.508936,389.906117 400.008936,387.206117 398.508936,392.406117 M526.908936,309.206117 C526.908936,309.306117 531.708936,311.606117 529.408936,314.206117 C526.108936,317.706117 526.508936,310.906117 526.908936,309.206117 M546.908936,270.506117 C546.808936,275.306117 536.708936,274.106117 536.808936,269.306117 C536.808936,263.406117 547.008936,265.406117 546.908936,270.506117 M534.808936,230.406117 C535.808936,226.006117 553.508936,219.906117 553.008936,227.606117 C552.708936,231.406117 532.608936,239.706117 534.808936,230.406117 M353.608936,379.406117 C351.608936,381.806117 348.808936,382.706117 346.408936,384.506117 C343.908936,386.406117 342.108936,388.906117 340.008936,391.206117 C334.008936,397.406117 326.808936,402.506117 320.408936,408.106117 C308.608936,418.506117 297.208936,429.706117 284.108936,438.606117 C260.608936,454.406117 233.408936,463.006117 206.408936,470.606117 C204.208936,471.206117 197.708936,473.806117 195.508936,471.906117 C193.108936,469.906117 194.308936,462.706117 194.408936,460.006117 C194.808936,448.906117 196.108936,437.706117 196.008936,426.606117 C195.908936,422.106117 194.608936,415.606117 197.008936,411.406117 C199.608936,406.806117 207.008936,405.406117 211.608936,403.606117 C225.508936,398.306117 238.908936,389.306117 251.208936,381.006117 C266.308936,370.806117 281.608936,360.406117 297.108936,350.906117 C312.308936,341.606117 329.108936,335.306117 346.108936,330.006117 C346.908936,331.706117 338.808936,337.006117 337.908936,337.706117 C333.508936,341.306117 328.608936,345.006117 325.308936,349.706117 C323.008936,353.006117 320.608936,360.606117 327.008936,360.806117 C330.108936,360.906117 334.708936,357.906117 337.608936,356.906117 C342.3032,355.340847 347.119919,354.170116 352.008936,353.406117 C347.808936,358.006117 333.508936,366.406117 336.108936,374.106117 C338.608936,381.606117 353.208936,372.906117 358.208936,372.906117 C357.308936,375.606117 355.308936,377.406117 353.608936,379.406117 M181.408936,400.306117 C172.108936,403.606117 162.508936,405.406117 152.908936,407.606117 C143.708936,409.606117 135.208936,411.106117 125.808936,410.006117 C112.808936,408.406117 98.4089364,403.006117 96.8089364,388.206117 C94.8089364,370.706117 107.208936,354.706117 117.808936,342.106117 C130.744256,326.919493 145.184628,313.082199 160.908936,300.806117 C176.64087,288.478488 193.479249,277.632296 211.208936,268.406117 C224.708936,261.406117 239.908936,257.206117 254.208936,251.906117 C256.908936,250.906117 264.408936,247.406117 267.008936,250.306117 C269.108936,252.606117 266.308936,256.606117 265.308936,258.706117 C263.508936,263.006117 263.208936,267.206117 262.808936,271.806117 C260.708936,292.206117 258.208936,312.606117 257.008936,333.006117 C256.708936,338.706117 256.108936,344.706117 256.408936,350.406117 C256.608936,353.606117 258.208936,357.606117 257.108936,360.706117 C255.008936,366.606117 245.308936,370.606117 240.208936,373.206117 C231.008936,377.906117 221.408936,381.506117 212.108936,386.006117 C202.008936,391.206117 192.108936,396.606117 181.408936,400.306117 M310.808936,267.906117 C313.408936,267.506117 317.208936,266.906117 319.508936,268.506117 C322.508936,270.706117 321.708936,273.706117 318.908936,275.206117 C316.708936,276.406117 311.608936,276.806117 309.508936,275.706117 C305.908936,273.706117 306.508936,268.406117 310.808936,267.906117 M325.008936,315.106117 C322.908936,318.506117 315.408936,320.806117 316.008936,314.406117 C316.608936,308.806117 328.808936,308.706117 325.008936,315.106117 M322.208936,217.906117 C325.508936,219.206117 331.608936,220.306117 332.608936,224.606117 C333.508936,228.606117 329.708936,228.306117 327.008936,227.206117 C324.708936,226.306117 314.808936,217.906117 322.208936,217.906117 M843.608936,369.906117 C841.708936,362.306117 843.108936,354.006117 842.108936,346.206117 C841.093538,338.844309 839.213903,331.627852 836.508936,324.706117 C830.608936,309.006117 823.708936,294.906117 814.108936,281.206117 C795.908936,255.306117 774.908936,232.506117 749.408936,213.606117 C724.25834,194.835377 696.497972,179.843431 667.008936,169.106117 C635.808936,157.806117 604.308936,153.906117 571.408936,151.706117 C561.608936,151.106117 551.708936,150.306117 541.908936,149.006117 C534.708936,148.106117 525.808936,147.006117 518.708936,149.206117 C514.308936,150.606117 511.808936,154.506117 516.608936,157.006117 C520.008936,158.806117 524.508936,159.006117 528.308936,159.506117 C523.708936,174.006117 516.308936,188.606117 504.508936,198.606117 C493.008936,208.406117 477.608936,211.706117 463.008936,214.206117 C455.108936,215.506117 446.308936,216.606117 438.308936,216.006117 C433.208936,215.606117 429.308936,213.306117 427.208936,218.506117 C425.808936,222.106117 425.108936,226.106117 423.208936,220.606117 C421.008936,214.106117 419.908936,214.206117 413.008936,212.306117 C398.908936,208.506117 382.808936,205.106117 370.608936,197.006117 C357.908936,188.606117 353.408936,174.906117 346.308936,162.206117 C344.508936,159.106117 339.208936,152.706117 342.008936,149.106117 C344.508936,145.806117 352.508936,146.106117 356.208936,145.806117 C360.108936,145.406117 364.008936,145.406117 367.908936,145.306117 C370.208936,145.206117 374.708936,146.106117 373.808936,142.806117 C372.408936,137.706117 357.708936,138.406117 354.108936,138.306117 C347.298517,138.071228 340.480047,138.338619 333.708936,139.106117 C299.965071,142.968285 266.589343,149.556479 233.908936,158.806117 C171.008936,176.506117 110.008936,209.206117 64.1089364,256.306117 C20.0089364,301.506117 6.10893636,376.706117 33.2089364,434.406117 C47.3089364,464.406117 77.8089364,476.706117 107.508936,486.606117 C123.108936,491.806117 139.708936,496.006117 156.308936,495.006117 C164.308936,494.506117 171.808936,492.406117 179.608936,490.806117 C183.008936,490.106117 186.808936,489.006117 190.308936,489.306117 C192.908936,489.506117 195.508936,491.906117 197.908936,490.606117 C199.708936,489.706117 200.408936,487.106117 202.608936,486.006117 C205.208936,484.706117 208.308936,484.206117 211.108936,483.506117 C218.808936,481.606117 226.308936,478.606117 233.908936,476.106117 C241.632327,473.403363 249.20931,470.299136 256.608936,466.806117 C260.408936,465.106117 269.108936,458.206117 271.608936,463.206117 C272.708936,465.506117 272.208936,469.906117 272.508936,472.406117 C273.008936,476.606117 273.508936,480.806117 274.208936,485.106117 C275.608936,494.406117 277.208936,503.606117 278.908936,512.806117 C281.908936,529.406117 285.808936,545.306117 292.308936,561.006117 C297.508936,573.506117 302.008936,587.606117 311.608936,597.606117 C315.643972,601.976978 321.713533,603.847472 327.508936,602.506117 C334.308936,600.906117 337.708936,594.706117 341.908936,589.706117 C351.008936,578.606117 366.108936,570.206117 380.108936,567.106117 C397.208936,563.406117 413.808936,568.806117 430.108936,573.506117 C447.308936,578.406117 464.908936,583.106117 481.808936,589.006117 C497.608936,594.506117 514.608936,602.606117 531.708936,601.906117 C546.608936,601.306117 560.508936,589.206117 571.308936,579.906117 C582.108936,570.606117 595.608936,557.006117 611.108936,558.106117 C618.808936,558.606117 625.808936,562.406117 633.308936,563.906117 C641.508936,565.606117 650.308936,565.806117 658.708936,566.406117 C669.108936,567.206117 692.408936,564.506117 696.208936,551.906117 C696.808936,550.006117 696.808936,546.206117 694.308936,545.506117 C692.008936,544.806117 690.908936,547.506117 688.808936,547.306117 C684.508936,547.106117 681.108936,539.506117 678.708936,536.506117 C669.108936,524.706117 655.808936,515.806117 645.008936,505.106117 C632.808936,493.006117 622.408936,478.406117 613.208936,463.906117 C617.408936,462.806117 621.808936,464.606117 625.908936,465.506117 C630.808936,466.506117 635.608936,467.806117 640.408936,469.106117 C645.708936,470.606117 651.108936,471.606117 656.508936,472.706117 C660.508936,473.506117 665.908936,473.806117 669.508936,475.806117 C672.708936,477.606117 674.408936,479.506117 678.408936,480.006117 C682.408936,480.506117 686.508936,480.106117 690.508936,480.106117 C701.408936,480.006117 712.208936,479.806117 723.008936,478.706117 C761.208936,474.606117 801.808936,458.506117 824.808936,426.406117 C831.167078,417.689327 836.064409,407.995989 839.308936,397.706117 C841.508936,389.606117 845.808936,378.306117 843.608936,369.906117" id="ink-shape"></path>
                <path d="M484.908936,0.0061173586 C495.008936,0.106117359 504.408936,3.10611736 513.708936,6.50611736 C521.908936,9.50611736 530.708936,12.2061174 537.408936,18.2061174 C549.408936,28.9061174 552.508936,46.6061174 554.508936,61.8061174 C556.908936,80.7061174 548.808936,96.6061174 542.008936,113.706117 C535.608936,129.706117 523.808936,142.706117 509.908936,152.506117 C502.608936,157.706117 494.508936,160.806117 486.008936,163.506117 C477.408936,166.306117 469.108936,170.006117 459.908936,170.006117 C445.908936,170.006117 428.008936,163.306117 422.108936,149.606117 C419.408936,143.306117 422.008936,142.206117 427.508936,145.606117 C435.408936,150.506117 442.908936,155.906117 452.108936,158.106117 C469.908936,162.406117 491.308936,155.806117 506.908936,147.106117 C522.508936,138.406117 533.008936,125.406117 540.008936,109.106117 C547.108936,92.7061174 549.808936,76.5061174 547.108936,58.9061174 C544.808936,43.9061174 540.208936,30.2061174 526.708936,22.1061174 C497.608936,4.50611736 458.308936,6.00611736 432.408936,28.8061174 C428.808936,31.9061174 425.308936,35.0061174 421.708936,38.0061174 C419.408936,39.9061174 416.608936,42.2061174 417.008936,45.5061174 C417.308936,48.3061174 423.308936,59.1061174 416.108936,55.8061174 C410.208936,53.1061174 407.108936,47.8061174 400.008936,47.2061174 C392.508936,46.5061174 383.508936,52.3061174 381.208936,59.6061174 C379.008936,66.6061174 382.908936,76.1061174 388.908936,80.1061174 C392.608936,82.6061174 396.708936,82.2061174 400.908936,82.1061174 C403.008936,82.1061174 408.808936,81.4061174 410.208936,83.6061174 C412.708936,87.5061174 404.008936,91.6061174 401.208936,92.5061174 C394.408936,94.6061174 386.408936,92.1061174 382.408936,86.1061174 C378.300105,79.9244956 375.823152,72.8032576 375.208936,65.4061174 C374.590165,58.3397816 376.426699,51.2761908 380.408936,45.4061174 C384.808936,39.2061174 393.808936,32.3061174 401.908936,34.5061174 C405.408936,35.4061174 408.208936,39.1061174 411.708936,39.7061174 C413.908936,40.1061174 413.008936,40.4061174 414.808936,38.8061174 C415.908936,37.8061174 417.008936,35.9061174 418.108936,34.7061174 C424.208936,27.7061174 430.208936,20.3061174 437.608936,14.7061174 C450.708936,4.50611736 468.408936,-0.193882641 484.908936,0.0061173586 Z M448.108936,138.106117 C449.708936,134.406117 452.608936,141.006117 453.408936,142.106117 C455.108936,144.306117 459.108936,146.006117 458.908936,149.206117 C458.608936,154.506117 451.408936,153.506117 449.008936,150.806117 C446.208936,147.606117 446.508936,141.806117 448.108936,138.106117 Z M499.408936,113.006117 C503.308936,119.106117 498.508936,125.606117 495.508936,131.006117 C492.608936,136.106117 489.808936,142.006117 486.408936,146.806117 C480.708936,154.806117 468.308936,146.106117 467.908936,137.906117 C467.608936,131.606117 472.108936,134.306117 475.008936,136.706117 C478.008936,139.106117 479.408936,139.706117 482.508936,137.106117 C488.708936,131.806117 491.508936,122.806117 495.808936,116.106117 C496.608936,114.706117 498.208936,113.906117 499.408936,113.006117 Z M516.69584,133.890528 C516.533927,130.827231 520.702548,123.908228 514.810594,123.050977 C511.624302,122.553443 509.655923,126.878426 507.470503,128.332366 C500.116977,133.297813 505.306844,121.36612 507.630776,118.703539 C512.759965,112.788184 522.954196,110.613866 524.895263,120.533153 C525.4217,124.353439 524.602109,128.237844 522.577134,131.519794 C521.641355,133.332062 517.033796,139.605052 516.69584,133.890528 Z M453.774184,112.330022 C455.776353,109.536938 458.267608,102.350586 462.740214,103.333339 C466.786151,104.182095 467.837296,111.730943 468.390197,115.0452 C469.015031,118.428923 469.448388,127.049375 474.663262,121.937126 C477.305432,119.345035 477.700371,113.609704 477.358336,110.221045 C476.455996,103.093929 470.815886,91.9476667 461.961996,95.2139557 C457.04262,96.9971385 453.393017,102.647837 451.207132,107.070722 C449.217304,110.570805 448.871728,119.134133 453.774184,112.330022 L453.774184,112.330022 Z M532.308936,82.3061174 C534.608936,85.0061174 540.008936,90.9061174 537.108936,94.7061174 C533.608936,99.1061174 528.008936,91.0061174 525.808936,88.7061174 C523.808936,86.7061174 519.608936,80.8061174 521.408936,77.8061174 C524.308936,72.7061174 530.308936,79.9061174 532.308936,82.3061174 Z M496.208936,70.8061174 C503.708936,75.7061174 493.808936,79.2061174 489.608936,79.6061174 C484.408936,80.1061174 477.808936,80.5061174 473.108936,77.9061174 C466.408936,74.3061174 468.608936,68.9061174 475.108936,67.6061174 C481.708936,66.3061174 490.408936,67.0061174 496.208936,70.8061174 L496.208936,70.8061174 Z M398.608936,55.2061174 C404.108936,56.3061174 410.408936,57.7061174 412.308936,63.7061174 C414.208936,69.9061174 411.508936,72.0061174 405.808936,70.6061174 C400.608936,69.3061174 392.808936,68.0061174 389.808936,62.9061174 C386.308936,56.8061174 393.508936,54.2061174 398.608936,55.2061174 L398.608936,55.2061174 Z" id="ink-shape-2"></path>
                <path d="M94.9089364,188.906117 C93.0089364,194.906117 83.7089364,198.906117 79.0089364,202.506117 C62.5372244,215.081801 46.8106831,228.604623 31.9089364,243.006117 C24.2089364,250.506117 18.4089364,259.706117 11.8089364,268.006117 C10.2089364,270.006117 7.30893636,274.606117 4.10893636,274.206117 C0.608936358,273.706117 -0.0910636416,267.706117 0.00893635838,265.106117 C0.408936358,256.106117 8.60893636,247.506117 14.4089364,241.306117 C21.0089364,234.406117 28.0089364,227.606117 35.2089364,221.306117 C43.1089364,214.306117 51.7089364,208.406117 60.4089364,202.506117 C69.0089364,196.806117 77.2089364,190.106117 86.1089364,184.906117 C90.2089364,182.406117 97.1089364,181.506117 94.9089364,188.906117 Z M666.508936,132.106117 C673.308936,132.306117 680.008936,134.606117 686.408936,136.606117 C700.608936,141.206117 714.008936,147.506117 727.308936,154.106117 C750.742148,165.764108 772.952383,179.733441 793.608936,195.806117 C797.896661,199.003272 802.371273,201.941824 807.008936,204.606117 C810.008936,206.406117 814.308936,208.506117 815.408936,212.106117 C818.308936,221.206117 803.508936,212.106117 801.408936,210.806117 L798.408936,209.006117 C754.608936,181.906117 710.908936,155.506117 661.408936,140.006117 C660.245291,139.759221 659.286293,138.938982 658.861979,137.827683 C658.437665,136.716384 658.605956,135.465725 659.308936,134.506117 C661.108936,131.806117 664.008936,132.006117 666.508936,132.106117 Z M92.9089364,151.006117 C92.6089364,153.806117 89.5089364,154.406117 87.3089364,155.306117 C79.4089364,158.606117 71.4089364,161.406117 63.5089364,164.806117 C48.9089364,171.006117 35.6089364,180.106117 20.3089364,184.806117 C16.8089364,185.906117 16.3089364,182.406117 17.2089364,180.006117 C18.2089364,177.306117 21.3089364,175.506117 23.6089364,173.906117 C30.1089364,169.506117 37.5089364,166.306117 44.7089364,163.206117 C51.8089364,160.106117 59.2089364,157.806117 66.5089364,155.206117 C73.3089364,152.806117 81.2089364,148.406117 88.5089364,148.006117 L88.8089364,148.006117 C91.3089364,148.006117 93.2089364,147.806117 92.9089364,151.006117 L92.9089364,151.006117 Z M679.008936,109.106117 C672.008936,107.106117 678.608936,102.706117 682.808936,103.006117 C687.408936,103.306117 691.908936,105.506117 696.208936,106.806117 C709.37468,110.553373 722.18962,115.438441 734.508936,121.406117 C736.408936,122.306117 744.608936,126.706117 739.108936,128.706117 C735.308936,130.106117 726.508936,124.206117 723.308936,122.906117 C709.108936,116.906117 693.808936,113.306117 679.008936,109.106117 Z" id="ink-shape-3"></path>
                <path d="M401.508936,123.406117 C402.408936,120.806117 413.108936,92.9061174 408.908936,92.1061174 C404.408936,91.2061174 398.508936,107.406117 397.208936,110.306117 C392.408936,121.106117 389.608936,132.706117 387.408936,144.306117 C385.908936,152.406117 384.508936,160.606117 385.008936,168.906117 C385.408936,175.206117 388.008936,176.206117 392.308936,180.106117 C392.296799,160.83357 395.403626,141.686063 401.508936,123.406117" id="ink-shape-4"></path>
            </g>
        </g>
    </g>
</svg>