<?xml version="1.0" encoding="UTF-8"?>
<svg width="889px" height="704px" viewBox="0 0 889 704" version="1.1" xmlns="http://www.w3.org/2000/svg" xmlns:xlink="http://www.w3.org/1999/xlink">
    <title>persona-vc</title>
    <g id="airlyft" stroke="none" stroke-width="1" fill="none" fill-rule="evenodd">
        <g id="persona-vc">
            <path d="M594.116281,258.699421 C586.516281,273.599421 578.416281,288.199421 570.316281,302.799421 C566.016281,310.599421 552.116281,342.599421 548.516281,343.899421 C544.616281,345.199421 520.916281,331.299421 514.116281,328.599421 C502.016281,323.699421 490.516281,319.199421 477.916281,316.199421 C463.816281,312.899421 449.516281,310.399421 434.916281,311.599421 C428.516281,312.099421 417.916281,313.699421 424.216281,304.699421 C428.916281,298.099421 433.416281,292.099421 439.716281,287.299421 C444.316281,283.799421 451.016281,277.499421 456.416281,275.199421 C462.016281,272.799421 470.416281,273.299421 476.516281,273.499421 C483.116281,273.699421 514.316281,283.399421 516.116281,273.199421 C519.316281,276.099421 521.116281,274.999421 524.816281,276.399421 C528.916281,277.999421 531.516281,281.099421 535.616281,282.999421 C538.316281,284.199421 543.116281,288.999421 546.116281,289.099421 C550.016281,289.099421 551.116281,285.899421 553.916281,283.499421 C560.216281,278.099421 568.616281,274.599421 575.516281,269.899421 C581.416281,265.699421 587.116281,261.399421 594.116281,258.699421 Z M525.416281,140.699421 C524.916281,147.499421 526.716281,153.799421 526.716281,160.899421 C526.716281,163.999421 526.516281,166.999421 527.516281,169.999421 C528.316281,172.599421 527.816281,177.399421 528.216281,180.199421 C520.416281,177.799421 505.916281,174.299421 497.916281,177.499421 C490.316281,180.599421 489.316281,194.699421 489.116281,201.599421 C488.916281,206.299421 491.016281,213.499421 489.416281,217.999421 C489.02463,218.955748 488.788318,219.968517 488.716281,220.999421 L488.716281,220.999421 C488.516281,220.899421 487.916281,220.899421 485.816281,222.499421 C483.716281,223.999421 481.116281,224.899421 479.016281,226.599421 C475.216281,229.699421 474.516281,233.199421 472.616281,237.699421 C470.490094,242.558398 465.719572,245.725712 460.416281,245.799421 C464.816281,237.799421 470.916281,230.399421 467.416281,220.999421 C464.816281,213.899421 469.416281,205.599421 473.016281,198.899421 C474.216281,196.699421 487.616281,179.599421 481.716281,178.399421 C477.816281,177.599421 469.016281,195.699421 467.316281,198.899421 C462.616281,195.699421 460.516281,191.799421 464.116281,186.999421 C466.916281,183.299421 470.316281,180.099421 473.016281,176.299421 C477.416281,170.099421 481.716281,162.699421 487.016281,157.199421 C496.016281,147.399421 512.116281,140.799421 525.416281,140.699421 L525.416281,140.699421 Z M649.016281,130.099421 C654.916281,135.699421 662.316281,140.399421 668.016281,146.299421 C673.016281,151.499421 679.716281,160.199421 682.016281,167.099421 C669.916281,169.399421 649.716281,176.599421 644.916281,189.299421 C626.016281,171.999421 618.716281,203.599421 615.016281,216.899421 C604.016281,212.099421 606.216281,196.199421 606.316281,186.899421 C606.416281,179.499421 610.916281,170.799421 600.216281,170.199421 C592.216281,169.799421 584.416281,172.999421 577.216281,176.099421 C567.860007,180.045154 559.186293,185.445131 551.516281,192.099421 L543.916281,186.199421 C556.316281,179.199421 562.816281,165.899421 570.116281,153.699421 C572.416281,149.799421 575.516281,145.499421 577.216281,141.299421 C578.416281,138.399421 579.216281,132.499421 580.516281,129.899421 C582.516281,125.799421 602.216281,124.699421 607.416281,123.699421 C621.316281,120.999421 637.816281,119.399421 649.016281,130.099421 Z" id="Accent" fill="#FFDC5F"></path>
            <g id="Ink" fill="#000000" fill-rule="nonzero">
                <path d="M645.911281,220.447421 C651.011281,220.147421 656.111281,221.347421 661.111281,220.847421 C656.711281,217.047421 652.311281,213.147421 647.811281,209.347421 C645.911281,212.747421 645.811281,216.647421 645.911281,220.447421 L645.911281,220.447421 Z M525.211281,141.347421 C512.011281,141.447421 496.011281,148.047421 486.811281,157.647421 C482.011281,162.747421 477.911281,169.647421 473.811281,175.347421 C471.219449,179.274713 468.273847,182.956717 465.011281,186.347421 C460.111281,191.247421 461.511281,192.447421 467.011281,196.147421 C468.711281,192.847421 477.911281,175.547421 481.811281,176.247421 C487.711281,177.447421 476.311281,195.847421 475.111281,198.047421 C471.411281,204.847421 465.511281,214.247421 468.211281,221.447421 C471.711281,230.847421 466.611281,236.247421 462.211281,244.247421 C466.811281,244.347421 467.311281,242.547421 468.911281,238.647421 C471.011281,233.547421 473.211281,229.347421 477.511281,225.847421 C480.911281,223.147421 486.411281,221.947421 487.911281,218.747421 C489.911281,214.647421 488.611281,206.647421 488.811281,202.147421 C489.011281,195.247421 489.111281,179.047421 496.611281,176.047421 C504.511281,172.847421 518.811281,175.847421 526.511281,178.247421 C525.511281,172.247421 522.511281,168.247421 522.511281,161.547421 C522.711281,154.547421 524.611281,148.247421 525.211281,141.347421 L525.211281,141.347421 Z M424.011281,253.547421 C430.911281,251.347421 437.411281,249.047421 444.511281,247.547421 C451.911281,245.947421 452.411281,244.247421 456.611281,237.847421 C459.811281,233.047421 463.611281,229.247421 462.711281,223.347421 C462.111281,219.547421 460.111281,217.747421 460.711281,213.447421 C461.300902,210.710621 462.137667,208.032974 463.211281,205.447421 C464.311281,202.347421 466.611281,198.847421 461.311281,198.747421 C458.411281,198.647421 458.311281,200.147421 456.311281,202.747421 C452.711281,207.547421 448.511281,211.847421 444.611281,216.347421 C437.911281,224.247421 430.811281,232.647421 423.311281,240.047421 C414.988276,248.277429 408.003855,257.758697 402.611281,268.147421 C401.611281,270.047421 395.611281,281.247421 398.211281,283.447421 C400.511281,285.447421 413.611281,280.747421 416.011281,280.247421 C426.311281,277.847421 437.911281,277.047421 447.611281,272.647421 C452.511281,270.447421 463.411281,267.847421 467.311281,264.447421 C470.911281,261.247421 470.811281,253.647421 468.711281,249.147421 C462.811281,252.847421 420.211281,266.647421 424.011281,253.547421 L424.011281,253.547421 Z M552.211281,190.547421 C559.199791,184.359176 567.133396,179.328933 575.711281,175.647421 C583.311281,172.347421 592.711281,168.647421 601.211281,169.247421 C611.711281,169.947421 607.311281,178.447421 607.311281,185.647421 C607.311281,195.247421 603.111281,209.047421 614.511281,213.947421 C618.211281,200.647421 626.111281,169.347421 645.011281,186.747421 C649.811281,173.947421 667.011281,169.647421 679.111281,167.347421 C676.911281,160.947421 670.211281,155.047421 665.611281,150.247421 C659.811281,144.247421 655.311281,137.147421 649.511281,131.147421 C638.111281,119.447421 617.411281,123.147421 602.911281,126.147421 C598.111281,127.147421 584.111281,128.347421 581.711281,131.847421 C580.211281,134.047421 581.111281,139.547421 580.011281,142.247421 C578.511281,145.947421 575.911281,149.447421 573.911281,152.947421 C566.411281,165.547421 558.811281,178.247421 545.911281,185.547421 L552.211281,190.547421 Z M594.111281,258.647421 C587.311281,261.247421 582.311281,265.647421 576.311281,269.247421 C569.011281,273.647421 560.411281,277.847421 553.911281,283.347421 C551.511281,285.347421 550.211281,288.847421 546.811281,289.047421 C543.911281,289.247421 539.511281,285.947421 537.011281,284.747421 C532.711281,282.747421 528.611281,279.847421 524.311281,278.047421 C520.811281,276.647421 519.211281,276.947421 516.111281,274.147421 C514.411281,284.347421 483.211281,274.847421 476.611281,274.647421 C470.511281,274.547421 462.211281,275.247421 456.611281,277.647421 C451.211281,279.947421 447.011281,285.047421 442.411281,288.547421 C436.111281,293.347421 430.111281,298.147421 425.411281,304.747421 C419.011281,313.847421 428.611281,311.247421 435.011281,310.647421 C449.611281,309.447421 463.811281,312.847421 477.911281,316.247421 C490.550759,319.137824 502.952955,322.982171 515.011281,327.747421 C521.811281,330.447421 528.911281,333.047421 535.311281,336.547421 C538.711281,338.447421 544.111281,343.047421 548.011281,341.647421 C551.511281,340.447421 555.111281,330.247421 557.211281,326.247421 C561.411281,318.347421 565.711281,310.647421 570.111281,302.847421 C578.511281,288.247421 586.511281,273.647421 594.111281,258.647421 L594.111281,258.647421 Z M510.611281,453.347421 C514.811281,450.947421 521.611281,451.547421 526.211281,450.547421 C531.494546,449.308843 536.676114,447.670799 541.711281,445.647421 C546.615476,443.756695 551.421539,441.620667 556.111281,439.247421 C558.211281,438.147421 561.011281,437.047421 563.011281,435.447421 C564.611281,434.147421 565.111281,431.847421 566.611281,430.747421 C570.411281,427.747421 571.511281,429.647421 572.011281,423.947421 C572.511281,417.747421 569.111281,414.247421 564.711281,409.547421 C560.636596,405.350383 555.990944,401.748319 550.911281,398.847421 C548.711281,397.547421 546.411281,396.147421 544.211281,394.847421 C540.911281,392.947421 536.411281,389.847421 534.711281,393.847421 C538.311281,394.747421 539.111281,399.447421 535.911281,401.047421 C534.111281,401.947421 531.411281,400.647421 529.311281,401.547421 C526.211281,403.047421 523.111281,407.247421 520.411281,409.547421 C511.611281,416.947421 503.111281,419.747421 491.611281,420.347421 C467.511281,421.547421 442.211281,418.847421 418.511281,415.247421 C412.411281,414.347421 406.311281,415.347421 400.211281,415.147421 C394.211281,414.947421 388.011281,413.647421 382.111281,412.647421 C370.811281,410.747421 358.811281,409.147421 347.711281,406.247421 C334.105788,402.840361 320.822402,398.256422 308.011281,392.547421 C295.911281,386.947421 282.111281,377.747421 268.511281,377.047421 C274.311281,382.747421 283.011281,384.947421 290.111281,388.747421 C295.811281,391.847421 304.811281,393.747421 308.411281,398.847421 C310.811281,402.147421 311.911281,408.147421 313.711281,412.047421 C315.711281,416.347421 317.511281,420.647421 319.311281,424.947421 C321.111281,429.347421 323.011281,433.647421 324.511281,438.147421 C325.411281,440.947421 325.811281,446.747421 328.011281,448.647421 C331.511281,451.647421 343.111281,453.047421 347.711281,454.047421 C356.411281,455.947421 366.411281,455.647421 375.311281,455.847421 C379.011281,455.947421 382.711281,456.447421 386.211281,456.447421 C391.111281,456.547421 390.711281,455.647421 390.611281,451.447421 C390.611281,448.847421 390.611281,444.247421 394.011281,446.347421 C396.311281,447.747421 394.711281,454.147421 394.311281,456.447421 C414.106788,458.50942 434.015736,459.277718 453.911281,458.747421 C473.111281,458.047421 491.611281,455.547421 510.611281,453.347421 L510.611281,453.347421 Z M599.211281,408.247421 C602.711281,383.347421 606.911281,358.047421 611.611281,333.547421 C616.411281,308.747421 622.111281,284.147421 628.611281,259.447421 C624.311281,258.447421 620.111281,257.447421 615.811281,256.347421 C615.611281,261.547421 613.911281,266.047421 613.111281,271.247421 C612.111281,278.447421 610.111281,285.347421 608.911281,292.447421 C606.611281,306.047421 602.511281,319.247421 598.811281,332.447421 C595.111281,345.947421 593.811281,359.847421 590.411281,373.347421 C587.611281,384.547421 586.111281,396.747421 584.511281,408.247421 C580.711281,436.047421 575.211281,463.947421 571.011281,491.747421 C567.111281,517.847421 566.711281,544.447421 566.911281,570.847421 C567.011281,586.947421 569.511281,602.947421 569.411281,619.047421 C569.411281,623.047421 569.711281,627.047421 569.911281,630.947421 C570.011281,633.747421 568.511281,641.547421 569.811281,643.847421 C570.611281,645.347421 574.111281,646.747421 575.311281,648.747421 C577.211281,652.047421 577.711281,655.947421 580.811281,658.347421 C583.311281,648.147421 582.111281,634.647421 581.611281,624.247421 C581.111281,614.247421 582.111281,603.847421 582.311281,593.647421 C582.711281,573.647421 583.811281,553.947421 584.811281,533.947421 C585.911281,511.947421 589.111281,489.547421 592.211281,467.747421 C595.111281,448.147421 597.011281,428.047421 599.211281,408.247421 L599.211281,408.247421 Z M506.511281,96.4474211 C505.111281,96.3474211 503.811281,96.1474211 502.411281,96.0474211 C502.611281,98.9474211 502.011281,103.647421 504.011281,105.147421 C505.511281,106.247421 508.711281,105.947421 510.511281,106.247421 C516.611281,107.447421 523.811281,108.447421 529.911281,106.247421 C532.311281,105.447421 530.711281,104.047421 534.011281,104.647421 C537.911281,105.347421 536.511281,105.947421 537.611281,108.347421 C538.511281,110.247421 538.911281,113.447421 539.911281,115.747421 C541.211281,118.747421 543.911281,124.247421 542.811281,127.747421 C541.711281,131.147421 537.511281,132.147421 535.711281,136.047421 C534.411281,138.947421 534.711281,143.047421 534.011281,146.247421 C533.111281,150.447421 531.911281,154.647421 531.411281,158.947421 C530.811281,164.347421 531.011281,170.747421 537.711281,171.547421 C543.911281,172.347421 548.411281,170.347421 552.611281,165.747421 C560.611281,157.047421 569.711281,144.847421 574.411281,133.947421 C574.911281,132.647421 576.311281,130.547421 576.111281,129.147421 C575.711281,126.447421 575.611281,129.147421 574.711281,127.347421 C573.911281,125.547421 572.611281,123.947421 571.911281,121.947421 C569.206235,114.777793 567.294832,107.33338 566.211281,99.7474211 C565.709774,96.3383102 565.509001,92.8917041 565.611281,89.4474211 C565.611281,88.2474211 566.311281,84.7474211 565.911281,83.9474211 C565.511281,83.1474211 563.211281,82.7474211 562.511281,81.9474211 C561.211281,80.4474211 559.011281,76.1474211 557.511281,75.0474211 C555.711281,73.6474211 551.811281,74.7474211 551.111281,72.0474211 C550.011281,67.6474211 577.111281,60.4474211 564.411281,54.5474211 C554.911281,50.1474211 540.411281,72.3474211 537.111281,54.8474211 C536.511281,51.8474211 537.611281,47.7474211 536.311281,44.9474211 C534.811281,41.8474211 530.811281,40.7474211 528.111281,39.2474211 C524.511281,37.3474211 520.911281,35.3474211 517.511281,33.3474211 C515.111281,31.9474211 511.711281,28.1474211 509.211281,27.7474211 C510.211281,32.8474211 508.311281,37.9474211 508.311281,43.1474211 C513.811281,41.6474211 517.511281,41.6474211 522.911281,44.2474211 C525.511281,45.5474211 535.211281,52.6474211 530.211281,56.0474211 C526.204003,53.653159 521.944933,51.7080717 517.511281,50.2474211 C515.644793,49.5566272 513.694056,49.1193931 511.711281,48.9474211 C507.411281,48.8474211 508.011281,49.3474211 506.411281,52.5474211 C504.811281,55.6474211 505.211281,63.8474211 501.711281,65.8474211 C498.211281,67.9474211 500.911281,65.0474211 497.911281,65.6474211 C496.211281,66.0474211 494.311281,67.3474211 492.711281,68.0474211 C494.911281,70.4474211 499.211281,72.5474211 500.711281,75.1474211 C502.811281,78.9474211 502.111281,86.8474211 502.411281,90.9474211 C505.111281,89.9474211 508.011281,89.9474211 510.811281,89.1474211 C513.411281,88.4474211 517.011281,85.4474211 517.311281,89.8474211 C517.711281,95.1474211 510.011281,96.4474211 506.511281,96.4474211 L506.511281,96.4474211 Z M542.211281,224.547421 C542.411281,220.347421 542.611281,216.147421 543.111281,211.947421 C543.411281,209.147421 546.111281,200.947421 544.611281,198.547421 C543.011281,195.847421 537.511281,195.647421 534.811281,195.047421 C529.711281,193.847421 524.911281,192.747421 519.711281,191.947421 C515.073236,191.279072 510.396793,190.911638 505.711281,190.847421 C500.511281,190.647421 499.211281,189.247421 498.111281,194.947421 C497.211281,199.447421 496.011281,204.147421 495.811281,208.747421 C495.611281,213.047421 497.011281,216.847421 492.711281,219.747421 C502.111281,219.747421 514.411281,211.347421 523.011281,218.847421 C535.311281,229.547421 513.911281,232.647421 508.211281,235.047421 C512.911281,237.347421 519.911281,239.147421 522.111281,244.347421 C524.611281,250.147421 521.011281,252.647421 515.511281,253.147421 C516.011281,255.447421 518.011281,256.847421 518.611281,259.547421 C519.511281,263.547421 516.711281,262.247421 520.211281,265.247421 C524.911281,269.247421 534.611281,271.947421 540.411281,274.547421 C541.811281,275.147421 543.111281,275.747421 544.511281,276.247421 C546.711281,278.147421 548.311281,277.847421 549.311281,275.147421 C552.311281,273.247421 554.911281,269.047421 557.511281,266.647421 C563.37386,261.212216 569.851054,256.480173 576.811281,252.547421 C573.911281,251.347421 570.511281,254.047421 567.711281,252.747421 C565.511281,251.647421 566.311281,249.747421 565.011281,248.347421 C565.511281,246.447421 565.011281,245.747421 563.311281,246.247421 C562.522764,246.319025 561.729325,246.181036 561.011281,245.847421 C559.611281,244.147421 559.011281,243.547421 558.911281,240.847421 C558.811281,238.047421 560.411281,237.047421 561.111281,234.747421 C563.211281,233.347421 563.111281,231.947421 561.011281,230.647421 C560.100036,229.249053 559.613741,227.616491 559.611281,225.947421 C559.211281,219.647421 564.911281,217.147421 569.311281,213.847421 C561.511281,212.947421 561.811281,203.847421 567.211281,199.847421 C572.811281,195.647421 584.711281,197.347421 591.411281,198.347421 C592.811281,198.547421 596.611281,200.347421 598.011281,199.247421 C598.911281,198.547421 598.311281,192.547421 598.311281,191.447421 C598.411281,189.047421 599.011281,186.147421 598.611281,183.747421 C597.811281,178.747421 599.511281,181.247421 595.911281,181.147421 C587.311281,180.847421 576.411281,188.347421 568.811281,191.847421 C560.311281,195.847421 554.911281,196.447421 554.811281,206.247421 C554.711281,215.547421 552.111281,224.747421 551.011281,233.947421 C550.511281,237.947421 550.111281,258.647421 542.811281,251.047421 C540.011281,248.047421 541.811281,243.547421 542.011281,239.847421 C542.211281,234.747421 542.111281,229.547421 542.211281,224.547421 L542.211281,224.547421 Z M69.8112809,535.447421 C74.0112809,536.147421 80.8112809,533.747421 85.3112809,533.547421 C93.3768244,533.23492 101.403439,532.265038 109.311281,530.647421 C115.411281,529.347421 122.411281,528.247421 125.711281,522.247421 C128.611281,516.947421 129.711281,510.347421 131.311281,504.547421 C132.111281,501.447421 134.311281,497.047421 134.311281,493.847421 C134.311281,489.747421 133.711281,490.547421 129.411281,488.247421 C124.011281,485.347421 118.711281,481.447421 112.811281,479.847421 C111.011281,479.547421 109.211281,479.147421 107.511281,478.847421 C105.211281,477.547421 103.911281,478.147421 103.611281,480.847421 C101.411281,483.247421 100.011281,487.547421 98.2112809,490.347421 C94.1373027,496.333705 88.6391037,501.213357 82.2112809,504.547421 C70.7158717,510.923314 58.6666614,516.245048 46.2112809,520.447421 C39.1112809,522.847421 32.6112809,526.147421 25.7112809,528.747421 C20.2112809,530.847421 12.5112809,531.447421 8.31128089,536.147421 C3.51128089,541.347421 10.9112809,543.247421 15.0112809,546.847421 C18.4112809,549.747421 18.4112809,550.447421 23.0112809,549.047421 C26.4112809,548.047421 29.5112809,545.947421 32.7112809,544.647421 C44.0112809,539.847421 57.6112809,536.747421 69.8112809,535.447421 L69.8112809,535.447421 Z M327.311281,618.447421 L314.711281,615.747421 C318.811281,623.447421 327.511281,634.747421 321.311281,643.647421 C319.011281,646.947421 315.111281,647.947421 311.611281,649.647421 C307.487595,651.798517 303.481877,654.168567 299.611281,656.747421 C283.311281,666.847421 266.711281,677.047421 249.511281,685.647421 C254.911281,687.347421 263.211281,688.547421 268.711281,687.047421 C275.211281,685.247421 281.111281,681.247421 287.811281,679.447421 C299.803434,676.162727 311.995575,673.657493 324.311281,671.947421 C334.211281,670.647421 358.911281,673.647421 357.711281,658.747421 C356.611281,644.647421 348.111281,631.147421 345.611281,617.247421 C339.411281,618.547421 333.611281,618.347421 327.311281,618.447421 L327.311281,618.447421 Z M577.511281,392.547421 C582.311281,369.047421 585.111281,345.147421 590.811281,321.847421 C593.611281,310.247421 595.611281,298.447421 598.411281,286.747421 C599.711281,281.347421 600.611281,275.847421 601.911281,270.447421 C603.211281,264.947421 605.911281,259.947421 606.511281,254.247421 C601.911281,255.347421 600.911281,265.847421 599.511281,269.747421 C597.042325,276.936373 594.171128,283.980823 590.911281,290.847421 C585.711281,301.847421 580.211281,312.447421 574.311281,323.147421 C568.281676,334.381799 561.464651,345.175422 553.911281,355.447421 C551.411281,358.847421 547.911281,361.447421 546.311281,365.147421 C543.711281,370.947421 542.611281,377.947421 540.211281,383.947421 C541.911281,384.847421 546.411281,385.047421 548.511281,385.447421 C552.14308,386.073028 555.674563,387.182922 559.011281,388.747421 C565.711281,392.047421 571.311281,395.947421 575.711281,401.947421 C576.811281,399.147421 577.111281,395.847421 577.511281,392.547421 L577.511281,392.547421 Z M391.511281,571.747421 C391.411281,549.147421 391.111281,526.347421 391.511281,503.847421 C391.609333,497.455555 392.110327,491.076232 393.011281,484.747421 C393.611281,480.847421 396.911281,472.547421 394.711281,470.747421 C392.811281,469.147421 382.911281,470.247421 380.511281,470.147421 C375.811281,470.047421 371.111281,469.847421 366.411281,469.447421 C366.411281,477.847421 369.711281,487.347421 371.211281,495.647421 C372.611281,503.347421 373.811281,511.147421 375.011281,518.947421 C377.511281,535.747421 378.311281,552.847421 381.011281,569.747421 C383.511281,585.047421 386.811281,600.247421 388.611281,615.547421 C389.611281,623.947421 391.611281,631.847421 393.211281,640.247421 C394.011281,644.647421 397.011281,662.647421 400.711281,664.447421 C401.511281,657.947421 398.311281,650.147421 397.711281,643.647421 C397.111281,636.947421 396.611281,630.147421 395.511281,623.347421 C394.211281,615.347421 393.611281,607.247421 393.111281,599.147421 C392.811281,594.247421 392.711281,589.247421 392.311281,584.347421 C391.911281,580.747421 390.611281,575.247421 391.511281,571.747421 L391.511281,571.747421 Z M509.411281,269.347421 C509.611281,266.847421 503.211281,266.947421 502.011281,264.147421 C499.611281,258.447421 505.111281,259.447421 508.511281,258.847421 C507.311281,255.647421 484.811281,256.847421 490.011281,248.147421 C493.611281,242.147421 507.511281,251.347421 511.111281,245.647421 C513.511281,241.947421 506.911281,241.347421 504.311281,241.047421 C500.411281,240.447421 491.111281,242.347421 491.411281,237.147421 C491.811281,230.747421 509.811281,226.247421 514.911281,224.447421 C514.311281,220.047421 492.611281,226.347421 489.511281,228.047421 C482.411281,232.047421 476.911281,239.347421 475.911281,247.347421 C474.711281,256.747421 479.411281,264.047421 488.811281,266.347421 C492.711281,267.347421 495.611281,267.447421 499.211281,268.847421 C501.611281,269.747421 509.311281,272.147421 510.911281,269.747421 C510.411281,269.647421 509.911281,269.447421 509.411281,269.347421 L509.411281,269.347421 Z M636.911281,211.047421 C637.311281,207.047421 640.611281,199.547421 636.711281,196.847421 C631.311281,193.147421 629.011281,199.247421 627.811281,202.847421 C626.311281,207.247421 620.011281,218.147421 625.511281,220.947421 C626.811281,221.547421 632.911281,220.847421 634.011281,220.447421 C637.011281,221.247421 638.011281,220.147421 636.911281,217.047421 L636.911281,211.047421 Z M504.411281,534.047421 C504.111281,523.147421 509.011281,509.947421 511.711281,499.247421 C514.811281,487.147421 516.511281,474.747421 519.811281,462.747421 C516.085632,463.084448 512.380444,463.618529 508.711281,464.347421 C503.711281,465.347421 503.611281,465.247421 504.011281,470.147421 C504.511281,477.547421 503.811281,484.747421 503.511281,492.047421 C502.711281,506.747421 504.611281,521.747421 503.411281,536.347421 C504.511281,536.547421 504.811281,535.847421 504.411281,534.047421 L504.411281,534.047421 Z M642.711281,247.547421 C654.649775,249.422877 666.243151,253.062657 677.111281,258.347421 C683.111281,261.147421 689.711281,264.147421 696.511281,265.347421 C704.011281,266.647421 711.911281,266.047421 719.511281,266.447421 C722.211281,266.647421 729.311281,267.947421 731.911281,266.347421 C734.511281,264.747421 734.311281,262.147421 734.411281,258.947421 C734.711281,250.847421 731.011281,242.847421 727.711281,235.547421 C724.911281,229.247421 722.711281,224.447421 718.311281,219.147421 C712.611281,212.247421 707.711281,204.747421 702.411281,197.547421 C698.411281,192.147421 694.411281,186.747421 690.311281,181.247421 C687.411281,177.347421 687.511281,176.047421 683.111281,176.447421 C678.811281,176.847421 674.411281,179.447421 670.311281,180.747421 C664.211281,182.747421 656.911281,183.847421 651.411281,187.047421 C647.811281,189.147421 647.711281,189.547421 647.711281,193.147421 C647.696316,196.796706 648.814422,200.360669 650.911281,203.347421 C655.111281,208.847421 662.111281,211.747421 668.111281,214.447421 C671.476229,216.114739 674.659814,218.125425 677.611281,220.447421 C680.911281,222.847421 687.611281,224.147421 690.211281,226.847421 C697.611281,234.647421 684.111281,233.147421 680.411281,232.847421 C672.311281,232.347421 664.211281,232.447421 656.011281,232.447421 C647.111281,232.447421 638.211281,232.047421 629.411281,232.347421 C623.813,232.452712 618.486734,229.937531 615.011281,225.547421 C613.411281,223.447421 612.811281,221.447421 610.611281,219.247421 C607.811281,216.347421 605.411281,213.347421 602.011281,211.147421 C596.511281,207.547421 586.511281,205.447421 579.911281,206.847421 C582.311281,207.147421 593.311281,210.947421 588.411281,215.647421 C587.811281,216.247421 580.711281,216.647421 579.211281,217.347421 C576.411281,218.647421 572.911281,220.447421 571.311281,223.147421 C576.111281,222.347421 593.711281,221.447421 584.711281,230.547421 C582.511281,232.747421 576.111281,235.047421 581.511281,237.447421 C582.711281,237.947421 585.211281,237.247421 586.811281,237.747421 C589.211281,238.447421 591.111281,240.447421 593.311281,241.547421 C599.611281,244.547421 608.311281,246.347421 614.911281,245.747421 C624.211281,244.747421 633.711281,246.347421 642.711281,247.547421 L642.711281,247.547421 Z M401.111281,522.947421 C401.411281,536.047421 400.911281,549.247421 401.211281,562.447421 C401.511281,576.547421 403.311281,590.347421 404.211281,604.247421 C405.011281,616.747421 406.711281,629.047421 408.011281,641.447421 C408.811281,648.647421 409.711281,655.447421 410.911281,662.547421 C412.011281,669.247421 412.211281,675.047421 404.311281,676.847421 C389.111281,680.247421 386.711281,658.347421 383.811281,649.147421 C379.411281,635.347421 376.611281,620.947421 374.411281,606.647421 C370.411281,580.047421 365.011281,553.847421 362.911281,527.147421 C361.611281,510.647421 359.711281,494.347421 358.711281,477.847421 C358.511281,474.647421 359.311281,469.647421 356.511281,468.247421 C354.811281,467.347421 350.111281,467.347421 347.911281,466.747421 C341.911281,465.047421 336.411281,462.447421 330.511281,459.747421 C334.711281,481.447421 336.011281,503.047421 339.111281,524.947421 C340.811281,536.547421 343.911281,548.647421 346.711281,560.047421 C349.511281,571.947421 350.211281,584.647421 353.411281,596.247421 C354.811281,601.347421 356.111281,603.447421 354.011281,608.647421 C351.411281,615.047421 353.111281,616.647421 356.411281,622.947421 C362.311281,634.547421 366.911281,648.347421 365.811281,661.447421 C365.011281,672.147421 356.911281,677.747421 346.911281,680.647421 C334.411281,684.247421 321.211281,683.847421 308.611281,687.947421 C297.611281,691.547421 286.411281,694.147421 275.811281,698.847421 C271.511281,700.747421 267.411281,703.047421 262.611281,703.347421 C256.011281,703.847421 251.611281,700.047421 245.411281,699.247421 C241.511281,698.747421 235.911281,700.647421 233.611281,696.547421 C231.811281,693.347421 233.811281,686.347421 236.111281,683.747421 C242.311281,676.447421 254.811281,670.147421 263.211281,665.847421 C272.980196,660.741836 282.34123,654.891189 291.211281,648.347421 C296.611281,644.447421 302.211281,640.747421 307.611281,636.847421 C311.211281,634.247421 312.611281,634.247421 312.211281,630.147421 C311.911281,626.847421 310.411281,623.747421 310.211281,620.447421 C310.011281,617.847421 310.911281,614.447421 309.711281,612.747421 C308.811281,611.547421 305.511281,610.647421 304.211281,609.747421 C299.411281,606.347421 298.311281,602.147421 296.111281,596.947421 C291.211281,585.247421 285.511281,573.847421 280.711281,562.047421 C270.511281,536.647421 264.211281,509.947421 255.711281,484.047421 C247.011281,457.547421 239.311281,429.847421 234.511281,402.347421 C228.111281,404.247421 222.111281,412.947421 217.011281,417.147421 C210.111281,422.947421 203.111281,428.447421 196.311281,434.347421 C185.211281,444.047421 174.111281,453.447421 164.911281,465.047421 C160.511281,470.647421 156.911281,476.647421 152.911281,482.547421 C150.611281,485.947421 148.511281,489.747421 146.011281,493.047421 C145.611281,493.547421 145.611281,494.647421 145.211281,495.047421 C144.311281,496.047421 142.411281,494.747421 141.811281,495.347421 C138.011281,499.247421 138.111281,510.447421 136.911281,515.647421 C135.311281,522.747421 133.511281,531.047421 127.911281,535.947421 C119.311281,543.547421 103.411281,544.747421 92.5112809,545.147421 C78.5112809,545.647421 64.9112809,549.547421 51.7112809,553.747421 C45.5112809,555.747421 39.5112809,557.947421 33.3112809,559.847421 C29.7112809,560.947421 25.6112809,563.147421 21.8112809,562.647421 C17.2112809,562.147421 13.6112809,558.247421 10.2112809,555.347421 C4.81128089,550.747421 -0.188719108,546.247421 0.00547706067,538.647421 C0.211280892,530.647421 4.51128089,524.647421 11.4112809,520.647421 C24.6112809,512.947421 39.4112809,508.047421 53.6112809,502.747421 C58.8637842,500.762943 63.9755324,498.424235 68.9112809,495.747421 C76.3112809,491.847421 84.7112809,488.747421 91.3112809,483.647421 C93.2112809,482.147421 100.311281,477.547421 100.911281,475.147421 C101.011281,474.847421 99.2112809,471.247421 99.2112809,470.647421 C99.2112809,469.147421 100.111281,467.547421 100.611281,466.247421 C104.011281,458.247421 109.711281,450.547421 114.111281,443.047421 C122.111281,429.247421 130.111281,415.347421 139.411281,402.347421 C157.911281,376.447421 178.611281,351.047421 201.011281,328.447421 C211.911281,317.447421 221.411281,304.947421 232.411281,294.047421 C236.650105,289.809101 241.50488,286.235447 246.811281,283.447421 C252.811281,280.347421 259.611281,279.747421 266.511281,278.747421 C283.211281,276.447421 297.211281,281.347421 312.911281,285.747421 C327.811281,289.847421 342.611281,293.247421 357.611281,297.547421 C374.011281,302.247421 390.211281,306.647421 406.611281,311.747421 C415.311281,314.447421 424.311281,316.147421 433.111281,318.747421 C437.311281,320.047421 453.311281,327.847421 456.811281,325.247421 C445.711281,320.047421 434.311281,315.247421 422.411281,312.147421 C418.911281,311.247421 416.711281,312.247421 416.811281,308.247421 C416.911281,306.047421 419.311281,303.147421 420.211281,301.247421 C422.311281,296.947421 424.711281,292.747421 426.811281,288.347421 C419.311281,290.447421 399.011281,297.847421 393.311281,290.247421 C387.411281,282.247421 392.311281,266.547421 396.011281,258.647421 C405.711281,238.147421 422.211281,221.047421 438.311281,205.647421 C441.811281,202.347421 449.311281,197.947421 451.111281,193.747421 C451.711281,192.447421 450.411281,190.547421 451.711281,188.847421 C452.511281,187.847421 455.511281,187.147421 456.711281,186.047421 C461.111281,182.147421 464.711281,173.847421 467.711281,168.747421 C470.911281,163.347421 473.811281,157.547421 477.811281,152.747421 C484.411281,144.847421 491.211281,136.447421 501.911281,134.647421 C507.111281,133.747421 512.711281,134.247421 517.711281,132.447421 C523.811281,130.247421 529.511281,126.847421 535.611281,124.547421 C534.111281,121.447421 532.811281,116.447421 529.911281,116.147421 C527.111281,115.847421 522.911281,118.247421 519.711281,118.247421 C515.198927,118.131299 510.709681,117.561768 506.311281,116.547421 C501.211281,115.547421 499.611281,115.747421 497.711281,110.247421 C495.811281,104.447421 496.311281,97.8474211 496.311281,91.8474211 C496.311281,88.9474211 496.911281,85.3474211 496.611281,82.4474211 C496.211281,78.1474211 495.411281,77.9474211 492.011281,75.2474211 C487.811281,71.8474211 482.611281,67.2474211 487.711281,61.3474211 C490.511281,58.1474211 496.311281,60.6474211 498.711281,57.1474211 C501.211281,53.6474211 501.111281,44.7474211 501.911281,40.6474211 C494.111281,44.4474211 497.011281,30.1474211 497.011281,26.7474211 C497.011281,21.7474211 493.611281,12.7474211 498.511281,8.54742115 C500.711281,6.64742115 502.411281,8.24742115 505.011281,7.14742115 C507.911281,5.84742115 509.811281,2.54742115 512.911281,1.24742115 C519.111281,-1.35257885 525.411281,1.74742115 531.811281,1.24742115 C539.111281,0.647421148 546.311281,-0.452578852 553.611281,0.747421148 C557.111281,1.34742115 558.511281,2.64742115 561.511281,4.14742115 C564.311281,5.54742115 567.211281,5.94742115 570.311281,6.84742115 C573.011281,7.64742115 575.411281,8.04742115 577.311281,10.4474211 C578.811281,12.3474211 578.211281,15.5474211 579.611281,17.1474211 C581.111281,18.7474211 583.911281,18.5474211 585.711281,20.4474211 C587.411281,22.2474211 588.411281,25.2474211 589.211281,27.5474211 C590.411281,30.6474211 590.511281,31.7474211 592.611281,34.2474211 C594.411281,36.3474211 597.011281,38.1474211 598.511281,40.5474211 C602.011281,46.2474211 602.111281,54.6474211 601.011281,61.0474211 C600.611281,63.2474211 597.411281,68.9474211 597.911281,70.8474211 C598.411281,72.6474211 601.411281,72.1474211 602.711281,73.2474211 C603.911281,74.2474211 604.911281,78.5474211 605.811281,78.8474211 C607.811281,79.4474211 610.311281,75.4474211 611.811281,74.8474211 C614.411281,73.8474211 615.511281,72.7474211 617.011281,76.6474211 C618.111281,79.5474211 616.611281,83.4474211 615.811281,86.1474211 C614.811281,89.6474211 613.711281,93.8474211 611.011281,96.4474211 C607.911281,99.5474211 605.411281,97.8474211 601.911281,99.5474211 C596.711281,102.047421 598.211281,109.847421 591.911281,112.147421 C585.811281,114.247421 579.111281,107.547421 574.511281,104.447421 C575.511281,111.947421 579.011281,119.147421 577.311281,126.847421 C591.311281,121.347421 605.111281,113.647421 620.311281,111.847421 C628.111281,110.947421 635.911281,109.947421 643.211281,113.147421 C651.811281,116.947421 657.011281,125.247421 662.811281,132.147421 C673.711281,145.147421 684.911281,157.747421 695.411281,171.247421 C705.011281,183.547421 713.111281,197.847421 723.711281,209.347421 C734.411281,221.047421 742.511281,240.047421 741.311281,256.147421 C741.211281,257.647421 740.111281,260.947421 740.211281,262.547421 C740.311281,263.747421 741.411281,265.247421 741.411281,266.247421 C741.311281,269.547421 740.311281,271.447421 737.111281,273.247421 C731.711281,276.447421 723.611281,277.947421 717.511281,278.747421 C708.812585,279.847416 700.009977,279.847416 691.311281,278.747421 C682.911281,277.647421 675.511281,272.947421 667.811281,270.047421 C661.042519,267.725678 654.127376,265.854915 647.111281,264.447421 C643.211281,263.547421 638.811281,261.147421 636.411281,263.447421 C634.211281,265.647421 633.711281,276.647421 633.211281,279.647421 C627.611281,311.547421 620.911281,342.347421 615.011281,374.147421 C608.311281,410.147421 603.711281,446.047421 599.011281,482.347421 C594.811281,515.347421 593.411281,548.647421 592.411281,581.647421 C591.911281,597.347421 591.911281,612.947421 592.011281,628.647421 C592.111281,637.447421 596.511281,666.847421 583.411281,667.947421 C575.711281,668.647421 569.611281,657.647421 567.511281,651.647421 C564.484424,642.53255 562.734468,633.042402 562.311281,623.447421 C561.311281,604.247421 560.011281,585.047421 559.211281,565.947421 C558.411281,545.147421 559.411281,524.047421 561.111281,503.347421 C562.811281,482.547421 567.211281,461.947421 568.511281,441.047421 C564.511281,446.747421 563.211281,447.847421 556.611281,450.247421 C549.711281,452.847421 543.011281,455.947421 536.011281,458.347421 C533.611281,459.147421 529.911281,459.647421 527.911281,461.047421 C524.311281,463.547421 526.711281,460.747421 525.511281,465.547421 C524.311281,470.747421 524.011281,476.947421 523.711281,482.247421 C522.211281,507.147421 515.311281,531.847421 512.111281,556.647421 C511.311281,562.647421 512.411281,588.047421 502.111281,580.047421 C494.211281,573.847421 494.311281,554.547421 493.211281,545.447421 C491.711281,533.347421 492.511281,520.947421 492.811281,508.747421 C493.111281,494.847421 493.311281,480.347421 496.611281,466.847421 C490.711281,465.847421 482.511281,468.547421 476.511281,469.047421 C471.311281,469.447421 466.211281,469.747421 461.111281,469.947421 C448.911281,470.647421 436.311281,471.147421 423.911281,470.947421 C421.611281,470.947421 406.911281,468.847421 405.011281,470.547421 C404.411281,471.047421 404.211281,478.547421 404.111281,479.447421 C403.711281,482.847421 403.111281,486.247421 402.611281,489.747421 C402.011281,500.447421 400.711281,512.147421 401.111281,522.947421 L401.111281,522.947421 Z" id="ink-layer"></path>
                <path d="M620.611281,626.442421 C629.911281,630.042421 639.811281,631.442421 649.211281,634.742421 C657.611281,637.742421 665.411281,641.742421 673.711281,644.742421 C674.211281,640.942421 674.411281,634.442421 673.011281,630.742421 C671.011281,625.642421 665.711281,625.442421 660.511281,623.642421 C647.811281,619.242421 634.511281,618.242421 621.911281,613.042421 C624.211281,617.242421 623.211281,622.742421 620.611281,626.442421 M781.611281,613.042421 C761.511281,613.642421 742.211281,618.342421 722.411281,621.242421 C712.711281,622.642421 703.111281,623.942421 693.411281,625.242421 C689.711281,625.742421 682.911281,625.142421 680.211281,628.342421 C678.011281,631.042421 680.411281,640.142421 679.411281,644.042421 C683.511281,644.342421 690.711281,640.542421 695.111281,639.942421 C702.011281,638.942421 708.811281,637.642421 715.711281,637.142421 C726.711281,636.442421 737.511281,635.842421 748.511281,634.642421 C759.711281,633.442421 770.511281,631.042421 781.811281,630.242421 C787.311281,629.842421 789.511281,630.842421 789.811281,625.042421 C789.911281,622.742421 790.211281,619.042421 789.611281,616.742421 C790.611281,614.042421 789.711281,612.642421 786.911281,612.742421 C785.140267,612.545399 783.34875,612.646805 781.611281,613.042421 M742.711281,594.542421 C748.111281,594.042421 753.611281,593.342421 759.111281,592.942421 C760.211281,592.842421 765.811281,593.242421 766.711281,592.142421 C768.011281,590.642421 766.611281,585.342421 766.311281,583.742421 C765.511281,578.142421 764.611281,574.842421 758.511281,574.842421 C753.311281,574.842421 748.011281,575.942421 742.911281,576.442421 C719.611281,578.742421 696.411281,579.742421 673.311281,584.042421 C674.711281,590.042421 676.311281,596.242421 674.611281,602.342421 C685.711281,602.942421 697.811281,600.742421 708.611281,598.642421 C719.881826,596.569272 731.27053,595.199956 742.711281,594.542421 M705.711281,538.242421 C697.411281,538.242421 688.611281,541.942421 680.311281,541.142421 C680.211281,542.642421 682.811281,541.442421 683.511281,542.842421 C685.111281,542.842421 685.611281,543.342421 685.111281,544.342421 C685.148471,544.65304 685.048249,544.964422 684.836856,545.195032 C684.625464,545.425642 684.323956,545.552512 684.011281,545.542421 C683.611281,545.542421 683.311281,545.642421 682.911281,545.642421 C681.311281,545.742421 681.011281,546.742421 682.111281,548.842421 C681.611281,551.442421 682.311281,554.742421 682.411281,557.342421 C697.211281,555.342421 711.511281,553.242421 726.411281,552.342421 C733.411281,551.942421 740.511281,551.942421 747.511281,551.342421 C755.211281,550.742421 763.711281,552.042421 771.211281,550.642421 C775.211281,549.842421 774.811281,549.942421 774.511281,544.642421 C774.311281,541.442421 774.411281,537.642421 771.811281,535.342421 C767.511281,531.442421 757.611281,533.742421 752.411281,533.842421 C736.767294,534.321064 721.169365,535.790676 705.711281,538.242421 M714.311281,613.242421 C736.611281,611.242421 758.811281,606.742421 781.311281,606.742421 C779.711281,605.142421 776.311281,604.742421 774.311281,603.842421 C772.011281,602.842421 769.911281,600.742421 767.711281,599.942421 C763.311281,598.242421 758.811281,600.642421 754.211281,601.642421 C743.311281,604.142421 732.011281,604.242421 721.111281,606.742421 C709.762112,609.414947 698.279363,611.484513 686.711281,612.942421 C681.211281,613.542421 675.311281,614.842421 669.911281,613.342421 C669.511281,613.042421 669.011281,612.742421 668.611281,612.442421 C668.111281,610.442421 666.811281,609.842421 664.611281,610.842421 C661.911281,610.342421 658.411281,611.042421 655.610551,611.042421 C655.511281,612.142421 665.711281,615.642421 667.611281,616.442421 C672.311281,618.542421 675.511281,620.042421 680.511281,619.142421 C691.811281,617.042421 702.911281,614.642421 714.311281,613.242421 M635.711281,547.942421 C636.611281,551.342421 640.211281,549.842421 643.411281,550.142421 C647.611281,550.642421 651.811281,552.142421 656.011281,553.242421 C663.411281,555.242421 670.911281,557.242421 678.311281,559.342421 C678.011281,556.342421 678.711281,549.542421 677.111281,546.842421 C675.411281,544.042421 667.611281,542.842421 663.911281,541.942421 C654.711281,539.842421 644.811281,541.042421 635.411281,541.442421 C635.511281,543.642421 635.611281,545.742421 635.711281,547.942421 M724.511281,569.242421 C733.311281,568.542421 742.111281,567.942421 750.811281,567.642421 C760.911281,567.242421 753.511281,565.642421 753.311281,559.542421 C740.111281,561.642421 726.711281,562.042421 713.611281,563.842421 C702.711281,565.342421 689.711281,569.242421 678.511281,567.142421 C673.211281,566.142421 667.911281,565.742421 662.311281,565.242421 C657.011281,564.742421 652.111281,562.242421 646.811281,561.642421 C641.011281,560.942421 635.011281,564.242421 629.211281,565.142421 C626.711281,565.542421 626.211281,567.142421 625.011281,564.242421 C623.811281,561.142421 627.211281,558.642421 628.611281,556.842421 C630.211281,554.742421 629.511281,558.142421 630.411281,554.842421 C630.611281,553.942421 630.011281,551.542421 629.911281,550.542421 C629.611281,547.942421 628.811281,545.242421 628.711281,542.642421 C628.611281,540.342421 628.611281,536.742421 631.111281,535.342421 C632.711281,534.542421 633.811281,535.742421 635.111281,535.442421 C646.295356,533.575626 657.705898,533.508108 668.911281,535.242421 C680.511281,537.142421 690.611281,532.042421 702.011281,530.042421 C715.511281,527.642421 729.111281,527.242421 742.611281,526.242421 C754.211281,525.342421 775.411281,520.842421 779.811281,535.642421 C781.111281,539.842421 782.911281,551.442421 779.511281,554.942421 C775.111281,559.642421 764.811281,558.142421 759.111281,559.342421 C760.011281,561.742421 762.511281,563.442421 761.611281,566.342421 C769.611281,566.742421 771.011281,574.242421 772.311281,581.342421 C773.611281,588.642421 771.111281,591.542421 778.011281,595.342421 C787.711281,600.642421 798.011281,606.042421 797.912003,618.642421 C797.811281,624.942421 797.111281,634.542421 790.611281,637.842421 C784.211281,641.042421 773.811281,640.542421 766.811281,641.642421 C753.211281,643.942421 739.511281,646.542421 725.811281,647.942421 C711.211281,649.342421 696.411281,650.542421 681.811281,651.242421 C673.811281,651.642421 667.011281,652.842421 659.311281,650.142421 C651.711281,647.542421 644.411281,645.542421 636.611281,643.642421 C628.911281,641.742421 605.311281,639.142421 612.211281,625.942421 C613.311281,623.842421 617.111281,622.142421 617.711281,620.142421 C618.711281,616.942421 615.411281,614.442421 615.511281,611.542421 C615.811281,606.242421 621.711281,605.542421 625.911281,605.542421 C618.811281,601.142421 628.311281,595.842421 628.211281,592.042421 C628.111281,585.442421 619.811281,581.142421 619.411281,575.542421 C618.311281,562.042421 661.211281,576.142421 667.811281,579.042421 C662.711281,586.542421 639.111281,580.042421 632.111281,578.942421 C633.176492,581.298022 633.916599,583.787473 634.311281,586.342421 C634.511281,588.442421 633.711281,590.842421 634.511281,592.942421 C635.711281,596.242421 635.611281,595.642421 639.711281,596.542421 C642.711281,597.242421 645.711281,598.042421 648.811281,598.742421 C653.511281,599.842421 660.811281,602.742421 665.411281,602.642421 C669.411281,602.542421 668.611281,603.742421 669.411281,599.242421 C669.811281,596.842421 669.111281,594.242421 668.711281,591.942421 C667.911281,586.942421 666.611281,582.342421 670.911281,578.742421 C675.011281,575.342421 683.711281,573.742421 688.811281,572.542421 C700.011281,569.742421 713.011281,569.042421 724.511281,569.242421" id="ink-layer-2"></path>
                <path d="M778.011281,484.647421 C765.812479,482.716713 753.44387,482.079847 741.111281,482.747421 C741.811281,485.847421 742.411281,488.847421 743.111281,491.947421 C754.611281,488.947421 766.311281,487.147421 778.011281,484.647421 Z M678.811281,508.347421 C673.911281,507.947421 677.311281,510.147421 678.511281,513.347421 C680.011281,517.247421 679.711281,522.247421 680.011281,526.347421 C694.311281,520.847421 711.011281,517.647421 726.211281,515.847421 C733.411281,514.947421 740.711281,514.747421 748.011281,514.347421 C750.111281,514.247421 757.911281,515.147421 759.511281,513.647421 C760.711281,512.547421 759.811281,506.647421 758.711281,505.347421 C752.611281,498.247421 729.111281,504.347421 720.611281,505.047421 C706.511281,506.147421 692.811281,508.647421 678.811281,508.347421 L678.811281,508.347421 Z M699.111281,489.347421 C711.811281,490.547421 724.011281,490.447421 736.711281,492.347421 C735.711281,484.247421 736.911281,482.247421 727.711281,481.847421 C719.611281,481.447421 711.411281,481.147421 703.311281,481.147421 C685.111281,481.147421 666.911281,480.847421 648.611281,480.847421 L648.611281,489.047421 C665.611281,487.247421 682.211281,490.347421 699.111281,489.347421 Z M638.211281,519.447421 C646.211281,519.447421 653.811281,522.447421 661.811281,523.247421 C666.611281,523.747421 665.111281,524.347421 668.411281,526.747421 C673.611281,530.447421 675.111281,528.447421 674.411281,523.447421 C672.211281,506.247421 650.411281,510.047421 637.911281,509.147421 C638.711281,513.247421 636.811281,516.747421 634.011281,519.547421 L638.211281,519.547421 L638.211281,519.447421 Z M724.611281,497.347421 C713.111281,497.547421 701.611281,498.147421 690.211281,497.947421 C685.111281,497.847421 678.511281,496.847421 673.511281,497.747421 C669.811281,498.347421 666.811281,500.247421 662.711281,500.947421 C668.611281,504.147421 671.611281,501.947421 677.811281,501.247421 C684.011281,500.547421 690.311281,500.547421 696.611281,500.147421 C706.811281,499.547421 717.811281,497.047421 727.911281,497.747421 C728.011281,496.247421 726.911281,496.147421 724.611281,497.347421 L724.611281,497.347421 Z M633.411281,534.547421 C628.111281,534.547421 635.411281,528.547421 636.311281,527.947421 C630.511281,527.947421 629.011281,524.447421 630.711281,518.847421 C632.311281,513.547421 633.511281,515.147421 629.511281,510.747421 C626.511281,507.447421 626.011281,504.947421 629.611281,501.247421 C633.211281,497.447421 640.611281,498.547421 643.811281,495.447421 C649.311281,490.147421 642.211281,479.547421 649.811281,475.447421 C654.911281,472.647421 663.211281,473.047421 668.811281,472.447421 C674.327934,471.914792 679.869371,471.681117 685.411281,471.747421 C697.411281,471.547421 709.811281,473.547421 721.811281,474.747421 C726.211281,475.147421 731.011281,476.947421 735.311281,476.947421 C739.711281,476.947421 744.311281,475.947421 748.811281,476.047421 C754.011281,476.147421 759.111281,475.747421 764.511281,476.647421 C768.611281,477.347421 778.311281,477.647421 781.511281,480.747421 C792.111281,491.047421 767.011281,495.747421 762.711281,496.847421 C767.111281,501.647421 766.911281,508.047421 766.211281,514.047421 C768.311281,514.047421 771.911281,513.147421 773.011281,515.447421 C774.311281,518.347421 769.411281,519.147421 768.211281,519.447421 C761.411281,521.447421 753.511281,520.847421 746.611281,521.547421 C732.711281,522.947421 718.911281,523.747421 705.111281,526.447421 C698.411281,527.747421 691.711281,529.347421 685.011281,530.547421 C683.811281,530.747421 682.711281,530.947421 681.511281,531.047421 C679.711281,530.847421 679.111281,532.047421 679.811281,534.447421 C677.911281,535.347421 671.011281,533.047421 668.811281,532.747421 C656.511281,530.847421 645.611281,531.647421 633.411281,534.547421 L633.411281,534.547421 Z" id="ink-layer-3"></path>
                <path d="M881.611281,653.942421 C873.711281,660.142421 866.311281,666.042421 857.711281,671.442421 C863.811281,671.342421 884.011281,661.642421 881.611281,653.942421 M878.511281,643.742421 C874.211281,640.042421 869.911281,640.442421 864.511281,639.242421 C859.611281,638.242421 854.811281,636.442421 849.911281,635.242421 C846.011281,634.342421 842.211281,633.042421 838.411281,632.142421 C833.011281,630.942421 832.411281,632.242421 827.411281,635.142421 C809.711281,645.242421 789.811281,652.242421 771.211281,660.442421 C776.711281,665.242421 789.011281,665.442421 795.911281,667.042421 C800.864452,668.20502 805.740529,669.674523 810.511281,671.442421 C815.011281,673.142421 822.111281,676.942421 826.911281,677.042421 C830.911281,677.142421 834.111281,673.242421 837.511281,671.142421 C842.011281,668.342421 846.511281,665.642421 851.011281,662.942421 C860.411281,657.242421 869.411281,650.242421 878.511281,643.742421 M798.411281,684.742421 C796.411281,682.742421 790.211281,682.842421 787.611281,682.242421 C782.511281,681.042421 777.611281,679.842421 772.411281,678.942421 C764.111281,677.542421 751.011281,676.842421 750.111281,666.042421 C749.311281,657.042421 760.211281,654.942421 766.511281,651.942421 C776.011281,647.342421 785.711281,643.142421 795.511281,639.142421 C804.711281,635.342421 813.911281,632.142421 823.311281,628.942421 C825.111281,628.342421 826.611281,628.442421 828.111281,626.942421 C829.311281,625.842421 828.911281,623.542421 830.211281,622.342421 C833.111281,619.642421 837.011281,621.042421 840.511281,621.742421 C848.688613,623.283379 856.718218,625.524977 864.511281,628.442421 C872.411281,631.542421 879.611281,632.142421 881.511281,641.142421 C885.611281,639.242421 888.611281,638.942421 888.111281,644.542421 C888.011281,646.142421 886.811281,647.942421 886.511281,649.642421 C886.111281,652.142421 886.811281,654.742421 886.411281,657.242421 C884.911281,666.342421 872.611281,673.142421 865.011281,676.742421 C855.611281,681.142421 843.511281,687.642421 833.011281,688.542421 C821.711281,689.542421 809.511281,685.142421 798.411281,684.742421" id="ink-layer-4"></path>
                <path d="M656.111281,533.347421 C652.811281,533.347421 649.411281,533.347421 646.111281,533.447421 C649.416383,532.863843 652.795169,532.830055 656.111281,533.347421" id="ink-layer-5"></path>
                <path d="M461.111281,180.747421 C460.111281,182.447421 459.111281,184.047421 458.111281,185.747421 C458.411281,183.547421 459.211281,181.747421 461.111281,180.747421" id="ink-layer-6"></path>
                <path d="M656.111281,581.147421 C658.111281,581.147421 660.111281,581.147421 662.111281,581.247421 C660.111281,581.247421 658.111281,581.247421 656.111281,581.147421" id="ink-layer-7"></path>
                <path d="M702.111281,472.447421 C699.811281,472.347421 697.411281,472.147421 695.111281,472.047421 C697.411281,472.147421 699.711281,472.247421 702.111281,472.447421" id="ink-layer-8"></path>
                <path d="M662.111281,533.442421 C660.111281,533.442421 658.111281,533.442421 656.111281,533.342421 C658.082654,532.825285 660.158235,532.859878 662.111281,533.442421" id="ink-layer-9"></path>
                <path d="M741.711281,249.747421 C741.611281,247.747421 741.611281,245.747421 741.511281,243.747421 C741.611281,245.747421 741.611281,247.747421 741.711281,249.747421" id="ink-layer-10"></path>
                <path d="M401.611281,551.747421 C401.611281,550.047421 401.511281,548.447421 401.511281,546.747421 C401.611281,548.347421 401.611281,550.047421 401.611281,551.747421" id="ink-layer-11"></path>
                <path d="M635.111281,111.047421 C633.411281,111.147421 631.811281,111.247421 630.111281,111.447421 C631.711281,111.247421 633.411281,111.147421 635.111281,111.047421" id="ink-layer-12"></path>
                <path d="M592.711281,599.747421 C592.711281,598.447421 592.611281,597.047421 592.611281,595.747421 C592.611281,597.047421 592.611281,598.347421 592.711281,599.747421" id="ink-layer-13"></path>
                <path d="M594.611281,548.747421 C594.611281,547.447421 594.511281,546.047421 594.511281,544.747421 C594.611281,546.047421 594.611281,547.347421 594.611281,548.747421" id="ink-layer-14"></path>
                <path d="M560.511281,571.747421 C560.511281,573.047421 560.611281,574.447421 560.611281,575.747421 C560.611281,574.347421 560.611281,573.047421 560.511281,571.747421" id="ink-layer-15"></path>
                <path d="M754.111281,521.247421 C755.111281,521.247421 756.111281,521.147421 757.111281,521.147421 C756.111281,521.147421 755.111281,521.247421 754.111281,521.247421" id="ink-layer-16"></path>
                <path d="M562.511281,603.747421 C562.611281,605.047421 562.611281,606.447421 562.711281,607.747421 C562.611281,606.347421 562.611281,605.047421 562.511281,603.747421" id="ink-layer-17"></path>
                <path d="M669.711281,596.747421 C669.611281,598.047421 669.611281,599.447421 669.511281,600.747421 C669.511281,599.347421 669.611281,598.047421 669.711281,596.747421" id="ink-layer-18"></path>
                <path d="M554.411281,0.847421148 C553.011281,0.647421148 551.611281,0.447421148 550.211281,0.347421148 C551.611281,0.647421148 553.111281,-0.552578852 554.411281,0.847421148" id="ink-layer-19"></path>
                <path d="M493.611281,513.747421 C493.611281,515.047421 493.511281,516.447421 493.511281,517.747421 C493.611281,516.347421 493.611281,515.047421 493.611281,513.747421" id="ink-layer-20"></path>
                <path d="M407.711281,635.747421 C407.611281,634.447421 407.611281,633.047421 407.511281,631.747421 C407.511281,633.047421 407.611281,634.347421 407.711281,635.747421" id="ink-layer-21"></path>
                <path d="M731.111281,523.247421 C732.111281,523.247421 733.111281,523.247421 734.111281,523.147421 C733.111281,523.247421 732.111281,523.247421 731.111281,523.247421" id="ink-layer-22"></path>
                <path d="M619.806281,572.747421 C619.806281,574.047421 619.706281,575.447421 619.706281,576.747421 C619.187205,575.457236 619.223384,574.010057 619.806281,572.747421" id="ink-layer-23"></path>
                <path d="M798.111281,685.147421 C799.111281,685.147421 800.111281,685.247421 801.111281,685.247421 C800.111281,685.247421 799.111281,685.247421 798.111281,685.147421" id="ink-layer-24"></path>
                <path d="M347.611281,567.747421 C347.611281,566.747421 347.511281,565.747421 347.511281,564.747421 C347.611281,565.747421 347.611281,566.747421 347.611281,567.747421" id="ink-layer-25"></path>
                <path d="M757.111281,566.942421 C756.211281,567.842421 755.111281,567.342421 754.111281,567.342421 C755.111281,567.242421 756.111281,567.042421 757.111281,566.942421" id="ink-layer-26"></path>
                <path d="M638.111281,534.942421 C636.857179,535.592474 635.365383,535.592474 634.111281,534.942421 L638.111281,534.942421" id="ink-layer-27"></path>
                <path d="M669.111281,534.442421 C667.811281,534.342421 666.411281,534.242421 665.111281,534.042421 C666.411281,534.142421 667.711281,534.242421 669.111281,534.442421" id="ink-layer-28"></path>
                <path d="M363.611281,529.747421 C363.611281,530.747421 363.511281,531.747421 363.511281,532.747421 C363.611281,531.747421 363.611281,530.747421 363.611281,529.747421" id="ink-layer-29"></path>
                <path d="M593.511281,583.747421 C593.611281,582.747421 593.611281,581.747421 593.711281,580.747421 C593.611281,581.747421 593.611281,582.747421 593.511281,583.747421" id="ink-layer-30"></path>
                <path d="M731.111281,526.047421 C729.811281,526.147421 728.411281,526.247421 727.111281,526.347421 C728.411281,526.247421 729.711281,526.147421 731.111281,526.047421" id="ink-layer-31"></path>
                <path d="M401.611281,522.747421 C401.611281,521.747421 401.511281,520.747421 401.511281,519.747421 C401.611281,520.747421 401.611281,521.747421 401.611281,522.747421" id="ink-layer-32"></path>
                <path d="M568.711281,445.747421 C568.611281,446.747421 568.511281,447.747421 568.511281,448.747421 C568.511281,447.747421 568.611281,446.747421 568.711281,445.747421" id="ink-layer-33"></path>
                <path d="M751.111281,475.947421 C749.857179,476.597474 748.365383,476.597474 747.111281,475.947421 L751.111281,475.947421" id="ink-layer-34"></path>
                <path d="M592.711281,614.747421 C592.611281,613.747421 592.611281,612.747421 592.511281,611.747421 C592.511281,612.747421 592.611281,613.747421 592.711281,614.747421" id="ink-layer-35"></path>
                <path d="M592.611281,622.747421 C592.611281,621.747421 592.511281,620.747421 592.511281,619.747421 C592.611281,620.747421 592.611281,621.747421 592.611281,622.747421" id="ink-layer-36"></path>
                <path d="M688.111281,650.247421 C688.779509,650.264018 689.448042,650.230591 690.111281,650.147421 C689.447831,650.228166 688.779476,650.261584 688.111281,650.247421" id="ink-layer-37"></path>
                <path d="M365.711281,658.747421 C365.611281,657.747421 365.611281,656.747421 365.511281,655.747421 C365.611281,656.747421 365.611281,657.747421 365.711281,658.747421" id="ink-layer-38"></path>
                <path d="M582.111281,667.147421 L584.111281,667.147421 C583.448369,667.247484 582.774193,667.247484 582.111281,667.147421" id="ink-layer-39"></path>
                <path d="M727.111281,475.347421 C725.811281,475.247421 724.411281,475.147421 723.111281,475.047421 C724.411281,475.147421 725.711281,475.247421 727.111281,475.347421" id="ink-layer-40"></path>
                <path d="M734.111281,476.447421 L731.111281,476.047421 L734.111281,476.447421 Z" id="ink-layer-41"></path>
                <path d="M582.511281,581.747421 C582.611281,578.747421 582.611281,575.747421 582.711281,572.747421 C582.611281,575.747421 582.611281,578.747421 582.511281,581.747421" id="ink-layer-42"></path>
                <path d="M504.511281,471.747421 C504.511281,474.047421 504.611281,476.447421 504.611281,478.747421 C504.611281,476.347421 504.611281,474.047421 504.511281,471.747421" id="ink-layer-43"></path>
                <path d="M332.111281,618.147421 C330.411281,618.147421 328.811281,618.147421 327.111281,618.247421 C328.811281,618.247421 330.411281,618.247421 332.111281,618.147421" id="ink-layer-44"></path>
                <path d="M469.111281,419.247421 C467.411281,419.247421 465.811281,419.147421 464.111281,419.147421 C465.811281,419.247421 467.411281,419.247421 469.111281,419.247421" id="ink-layer-45"></path>
                <path d="M448.111281,418.147421 C446.811281,418.147421 445.411281,418.147421 444.111281,418.247421 C445.411281,418.247421 446.711281,418.247421 448.111281,418.147421" id="ink-layer-46"></path>
                <path d="M520.111281,107.347421 C521.811281,107.247421 523.411281,107.147421 525.111281,107.047421 C523.411281,107.147421 521.711281,107.247421 520.111281,107.347421" id="ink-layer-47"></path>
                <path d="M542.511281,224.747421 C542.611281,223.047421 542.611281,221.447421 542.711281,219.747421 C542.611281,221.347421 542.511281,223.047421 542.511281,224.747421" id="ink-layer-48"></path>
                <path d="M394.111281,456.047421 C395.411281,456.147421 396.811281,456.247421 398.111281,456.347421 C396.711281,456.247421 395.411281,456.147421 394.111281,456.047421" id="ink-layer-49"></path>
                <path d="M391.511281,506.747421 C391.511281,505.447421 391.511281,504.047421 391.611281,502.747421 C391.611281,504.047421 391.611281,505.347421 391.511281,506.747421" id="ink-layer-50"></path>
                <path d="M506.111281,453.447421 C507.411281,453.347421 508.811281,453.147421 510.111281,453.047421 C508.711281,453.147421 507.411281,453.247421 506.111281,453.447421" id="ink-layer-51"></path>
                <path d="M597.511281,429.747421 C597.611281,428.447421 597.711281,427.047421 597.711281,425.747421 C597.611281,427.047421 597.511281,428.347421 597.511281,429.747421" id="ink-layer-52"></path>
                <path d="M615.111281,245.347421 C616.411281,245.247421 617.811281,245.147421 619.111281,245.047421 C617.711281,245.147421 616.411281,245.247421 615.111281,245.347421" id="ink-layer-53"></path>
                <path d="M391.711281,581.747421 C391.611281,580.747421 391.611281,579.747421 391.611281,578.747421 C391.611281,579.747421 391.611281,580.747421 391.711281,581.747421" id="ink-layer-54"></path>
                <path d="M503.811281,530.747421 C506.011281,536.147421 504.811281,532.347421 504.811281,533.547421 C502.911281,533.847421 502.611281,532.847421 503.811281,530.747421" id="ink-layer-55"></path>
                <path d="M412.111281,415.247421 C411.111281,415.247421 410.111281,415.147421 409.111281,415.147421 C410.111281,415.247421 411.111281,415.247421 412.111281,415.247421" id="ink-layer-56"></path>
                <path d="M616.511281,313.747421 C616.611281,312.447421 616.611281,311.047421 616.711281,309.747421 C616.611281,311.047421 616.511281,312.347421 616.511281,313.747421" id="ink-layer-57"></path>
                <path d="M391.511281,541.747421 C391.611281,540.747421 391.611281,539.747421 391.711281,538.747421 C391.611281,539.747421 391.511281,540.747421 391.511281,541.747421" id="ink-layer-58"></path>
                <polyline id="ink-layer-59" points="599.411281 410.747421 599.711281 407.747421 599.411281 410.747421"></polyline>
                <polyline id="ink-layer-60" points="378.411281 544.747421 378.711281 547.747421 378.411281 544.747421"></polyline>
                <polyline id="ink-layer-61" points="376.411281 536.747421 376.711281 539.747421 376.411281 536.747421"></polyline>
                <path d="M576.511281,399.747421 C576.611281,398.747421 576.611281,397.747421 576.711281,396.747421 C576.611281,397.747421 576.511281,398.747421 576.511281,399.747421" id="ink-layer-62"></path>
                <path d="M66.1112809,535.347421 C67.4112809,535.247421 68.8112809,535.147421 70.1112809,535.047421 C68.7112809,535.147421 67.4112809,535.247421 66.1112809,535.347421" id="ink-layer-63"></path>
                <path d="M567.611281,559.747421 C567.611281,560.747421 567.511281,561.747421 567.511281,562.747421 C567.611281,561.747421 567.611281,560.747421 567.611281,559.747421" id="ink-layer-64"></path>
                <path d="M583.511281,562.747421 C583.611281,561.747421 583.611281,560.747421 583.711281,559.747421 C583.611281,560.747421 583.511281,561.747421 583.511281,562.747421" id="ink-layer-65"></path>
                <polyline id="ink-layer-66" points="577.411281 395.747421 577.711281 392.747421 577.411281 395.747421"></polyline>
                <path d="M74.1112809,534.442421 C75.4112809,534.342421 76.8112809,534.142421 78.1112809,534.042421 C76.7112809,534.142421 75.4112809,534.242421 74.1112809,534.442421" id="ink-layer-67"></path>
                <path d="M585.711281,530.747421 C585.22201,529.786563 585.298792,528.634829 585.911281,527.747421 C585.811281,528.747421 585.711281,529.747421 585.711281,530.747421" id="ink-layer-68"></path>
                <path d="M568.611281,511.747421 C568.611281,512.747421 568.511281,513.747421 568.511281,514.747421 C568.611281,513.747421 568.611281,512.747421 568.611281,511.747421" id="ink-layer-69"></path>
                <path d="M569.511281,610.747421 C569.611281,611.747421 569.611281,612.747421 569.711281,613.747421 C569.611281,612.747421 569.511281,611.747421 569.511281,610.747421" id="ink-layer-70"></path>
                <path d="M643.111281,247.047421 C644.111281,247.147421 645.111281,247.347421 646.111281,247.447421 C645.111281,247.247421 644.111281,247.147421 643.111281,247.047421" id="ink-layer-71"></path>
                <path d="M639.111281,247.047421 C640.411281,247.147421 641.911281,246.447421 643.111281,247.447421 L639.111281,247.047421 Z" id="ink-layer-72"></path>
                <path d="M498.111281,246.047421 L502.111281,246.347421 C500.711281,246.247421 499.411281,246.147421 498.111281,246.047421" id="ink-layer-73"></path>
                <path d="M432.111281,457.947421 L436.111281,457.947421 C434.869876,458.647623 433.352686,458.647623 432.111281,457.947421" id="ink-layer-74"></path>
                <path d="M395.711281,625.747421 C395.611281,624.747421 395.511281,623.747421 395.511281,622.747421 C395.511281,623.747421 395.611281,624.747421 395.711281,625.747421" id="ink-layer-75"></path>
                <path d="M457.111281,458.347421 C458.411281,458.247421 459.811281,458.147421 461.111281,458.047421 C459.711281,458.147421 458.411281,458.247421 457.111281,458.347421" id="ink-layer-76"></path>
                <path d="M570.511281,634.747421 C570.511281,635.747421 570.511281,636.747421 570.611281,637.747421 C570.611281,636.747421 570.611281,635.747421 570.511281,634.747421" id="ink-layer-77"></path>
                <path d="M574.111281,222.447421 C575.411281,222.347421 576.811281,222.147421 578.111281,222.047421 C576.711281,222.147421 575.411281,222.247421 574.111281,222.447421" id="ink-layer-78"></path>
                <polyline id="ink-layer-79" points="591.411281 477.747421 591.711281 474.747421 591.411281 477.747421"></polyline>
                <path d="M637.511281,210.747421 C637.611281,209.747421 637.711281,208.747421 637.711281,207.747421 C637.611281,208.747421 637.511281,209.747421 637.511281,210.747421" id="ink-layer-80"></path>
                <path d="M542.511281,124.747421 C542.511281,125.747421 542.511281,126.747421 542.611281,127.747421 C542.611281,126.747421 542.611281,125.747421 542.511281,124.747421" id="ink-layer-81"></path>
                <path d="M507.111281,106.047421 C508.411281,106.147421 509.811281,106.247421 511.111281,106.347421 C509.711281,106.247421 508.411281,106.147421 507.111281,106.047421" id="ink-layer-82"></path>
                <path d="M307.111281,674.447421 C308.411281,674.347421 309.811281,674.147421 311.111281,674.047421 C309.711281,674.147421 308.411281,674.247421 307.111281,674.447421" id="ink-layer-83"></path>
                <path d="M263.111281,687.447421 C264.3771,686.847358 265.845462,686.847358 267.111281,687.447421 L263.111281,687.447421" id="ink-layer-84"></path>
                <path d="M782.111281,629.347421 C784.411281,629.247421 786.811281,629.147421 789.111281,628.947421 C786.711281,629.147421 784.411281,629.247421 782.111281,629.347421" id="ink-layer-85"></path>
                <path d="M782.111281,612.147421 C780.811281,612.147421 779.411281,612.247421 778.111281,612.247421 C779.411281,612.247421 780.711281,612.247421 782.111281,612.147421" id="ink-layer-86"></path>
                <path d="M762.111281,592.347421 C763.811281,592.247421 765.411281,592.047421 767.111281,591.947421 C765.511281,592.947421 763.711281,592.247421 762.111281,592.347421" id="ink-layer-87"></path>
                <path d="M743.111281,594.442421 C744.811281,594.342421 746.411281,594.242421 748.111281,594.042421 C746.411281,594.142421 744.711281,594.242421 743.111281,594.442421" id="ink-layer-88"></path>
                <path d="M715.111281,612.347421 C716.411281,612.247421 717.811281,612.147421 719.111281,612.047421 C717.711281,612.147421 716.411281,612.247421 715.111281,612.347421" id="ink-layer-89"></path>
                <path d="M722.111281,612.347421 C723.411281,612.247421 724.811281,612.147421 726.111281,612.047421 C724.711281,612.147421 723.411281,612.247421 722.111281,612.347421" id="ink-layer-90"></path>
                <path d="M727.111281,611.347421 C728.411281,611.247421 729.811281,611.147421 731.111281,610.947421 C729.711281,611.147421 728.411281,611.247421 727.111281,611.347421" id="ink-layer-91"></path>
                <path d="M759.111281,632.347421 C760.411281,632.247421 761.811281,632.147421 763.111281,632.047421 C761.811281,632.847421 760.411281,632.347421 759.111281,632.347421" id="ink-layer-92"></path>
                <path d="M721.111281,552.442421 C722.411281,552.342421 723.811281,552.142421 725.111281,552.042421 C723.711281,552.142421 722.411281,552.242421 721.111281,552.442421" id="ink-layer-93"></path>
                <path d="M682.111281,541.047421 C681.811281,541.847421 680.011281,541.747421 680.111281,540.947421 C680.779476,540.933258 681.447831,540.966676 682.111281,541.047421" id="ink-layer-94"></path>
                <path d="M635.511281,544.747421 C635.511281,545.747421 635.611281,546.747421 635.611281,547.747421 C635.611281,546.747421 635.611281,545.747421 635.511281,544.747421" id="ink-layer-95"></path>
                <path d="M772.111281,550.047421 C773.111281,550.047421 774.111281,550.047421 775.111281,549.947421 C774.221063,550.577106 773.041455,550.616427 772.111281,550.047421" id="ink-layer-96"></path>
                <path d="M708.111281,598.442421 C709.411281,598.342421 710.811281,598.242421 712.111281,598.042421 C710.711281,598.142421 709.411281,598.242421 708.111281,598.442421" id="ink-layer-97"></path>
                <path d="M692.111281,600.347421 L696.111281,600.047421 L692.111281,600.347421 Z" id="ink-layer-98"></path>
                <path d="M770.111281,630.442421 C771.411281,630.342421 772.811281,630.142421 774.111281,630.042421 C772.711281,630.142421 771.411281,630.242421 770.111281,630.442421" id="ink-layer-99"></path>
                <path d="M722.111281,636.442421 C723.3771,635.842358 724.845462,635.842358 726.111281,636.442421 L722.111281,636.442421" id="ink-layer-100"></path>
                <path d="M720.011281,498.547421 L718.111281,497.947421 C720.411281,497.947421 722.811281,497.847421 725.111281,497.847421 C725.111281,497.847421 720.211281,498.647421 720.011281,498.547421" id="ink-layer-101"></path>
                <path d="M639.111281,519.442421 C640.72394,518.842381 642.498621,518.842381 644.111281,519.442421 L639.111281,519.442421" id="ink-layer-102"></path>
                <path d="M719.111281,490.047421 C720.811281,490.147421 722.411281,490.247421 724.111281,490.347421 C722.411281,490.247421 720.711281,490.147421 719.111281,490.047421" id="ink-layer-103"></path>
                <path d="M698.111281,500.347421 C699.811281,500.247421 701.411281,500.147421 703.111281,499.947421 C701.411281,500.147421 699.711281,500.247421 698.111281,500.347421" id="ink-layer-104"></path>
                <path d="M711.111281,498.347421 C712.411281,498.247421 713.811281,498.147421 715.111281,498.047421 C713.711281,498.147421 712.411281,498.247421 711.111281,498.347421" id="ink-layer-105"></path>
                <path d="M700.111281,489.047421 C701.411281,489.147421 702.811281,489.247421 704.111281,489.347421 C702.711281,489.247421 701.411281,489.147421 700.111281,489.047421" id="ink-layer-106"></path>
                <path d="M702.111281,498.247421 C701.411281,498.247421 700.811281,498.147421 700.111281,498.147421 C700.811281,498.147421 701.411281,498.247421 702.111281,498.247421" id="ink-layer-107"></path>
                <path d="M689.111281,498.247421 C688.443053,498.264018 687.77452,498.230591 687.111281,498.147421 C687.77452,498.230591 688.443053,498.264018 689.111281,498.247421" id="ink-layer-108"></path>
                <path d="M725.111281,497.347421 C725.111281,497.647421 728.111281,496.247421 728.111281,497.547421 L725.111281,497.347421 Z" id="ink-layer-109"></path>
                <path d="M359.111281,433.747421 C360.211281,429.347421 359.911281,425.847421 363.711281,428.647421 C365.811281,430.247421 369.311281,438.047421 369.011281,440.747421 C368.711281,444.047421 367.211281,445.347421 364.111281,444.247421 C360.611281,443.147421 359.211281,437.147421 359.111281,433.747421" id="ink-layer-110"></path>
                <path d="M553.911281,406.947421 C562.911281,406.947421 558.911281,416.447421 551.511281,416.647421 C548.111281,416.747421 543.111281,416.047421 544.211281,411.447421 C544.811281,409.047421 553.511281,405.747421 553.911281,406.947421" id="ink-layer-111"></path>
                <path d="M457.911281,425.747421 C464.411281,428.847421 455.311281,442.647421 449.411281,439.247421 C441.811281,434.847421 455.211281,427.647421 457.911281,425.747421" id="ink-layer-112"></path>
                <path d="M442.111281,438.747421 C444.211281,441.047421 453.811281,448.847421 448.511281,452.047421 C442.111281,455.847421 437.111281,443.047421 442.111281,438.747421" id="ink-layer-113"></path>
                <path d="M333.811281,432.747421 C331.711281,428.647421 334.611281,418.047421 341.011281,419.947421 C347.411281,421.947421 337.311281,431.647421 333.811281,432.747421" id="ink-layer-114"></path>
                <path d="M476.411281,435.047421 C480.611281,433.347421 479.811281,438.347421 480.411281,439.947421 C481.111281,441.747421 484.811281,446.247421 483.911281,448.147421 C482.511281,451.047421 479.211281,449.147421 477.511281,447.347421 C474.411281,444.047421 474.611281,438.847421 476.411281,435.047421" id="ink-layer-115"></path>
                <path d="M412.511281,439.647421 C409.011281,439.647421 400.711281,429.547421 405.611281,427.847421 C411.711281,425.847421 416.811281,440.447421 412.511281,439.647421" id="ink-layer-116"></path>
                <path d="M533.306281,423.747421 C536.506281,424.547421 540.706281,433.647421 535.906281,434.647421 C530.606281,435.747421 529.606281,426.247421 533.306281,423.747421" id="ink-layer-117"></path>
                <path d="M513.911281,440.747421 C511.411281,435.947421 510.811281,425.547421 516.911281,433.847421 C518.211281,435.647421 519.611281,434.947421 518.911281,437.847421 C518.311281,440.447421 515.911281,440.747421 513.911281,440.747421" id="ink-layer-118"></path>
                <path d="M381.711281,415.747421 C384.311281,419.647421 383.511281,431.647421 378.211281,424.547421 C375.811281,421.447421 377.411281,415.847421 381.711281,415.747421" id="ink-layer-119"></path>
                <path d="M510.311281,52.8474211 C515.311281,51.5474211 516.511281,63.2474211 513.611281,64.5474211 C509.511281,66.3474211 510.011281,54.7474211 510.311281,52.8474211" id="ink-layer-120"></path>
                <path d="M824.211281,647.347421 C819.611281,647.047421 813.111281,645.847421 820.111281,642.547421 C824.511281,640.447421 831.111281,640.347421 835.811281,641.147421 C839.011281,641.747421 843.911281,644.447421 838.911281,647.847421 C836.111281,649.947421 827.711281,647.447421 824.211281,647.347421" id="ink-layer-121"></path>
                <path d="M819.111281,655.747421 C817.811281,655.547421 816.411281,655.447421 815.111281,655.347421 C816.111281,653.347421 819.311281,652.947421 819.111281,655.747421" id="ink-layer-122"></path>
                <path d="M825.111281,647.147421 C826.411281,647.147421 827.811281,647.247421 829.111281,647.247421 C827.711281,647.247421 826.411281,647.247421 825.111281,647.147421" id="ink-layer-123"></path>
            </g>
        </g>
    </g>
</svg>