<svg xmlns="http://www.w3.org/2000/svg" width="100" height="100" fill="#4f46e5" viewBox="0 0 256 256">
    <rect width="256" height="256" fill="none"></rect>
    <circle cx="80" cy="168" r="32" opacity="0.2"></circle>
    <circle cx="80" cy="64" r="32" opacity="0.2"></circle>
    <circle cx="176" cy="168" r="32" opacity="0.2"></circle>
    <circle cx="176" cy="64" r="32" opacity="0.2"></circle>
    <circle cx="80" cy="168" r="32" fill="none" stroke="#4f46e5" stroke-linecap="round" stroke-linejoin="round" stroke-width="16"></circle>
    <path d="M32,224a60,60,0,0,1,96,0" fill="none" stroke="#4f46e5" stroke-linecap="round" stroke-linejoin="round" stroke-width="16"></path>
    <circle cx="80" cy="64" r="32" fill="none" stroke="#4f46e5" stroke-linecap="round" stroke-linejoin="round" stroke-width="16"></circle>
    <path d="M32,120a60,60,0,0,1,96,0" fill="none" stroke="#4f46e5" stroke-linecap="round" stroke-linejoin="round" stroke-width="16"></path>
    <circle cx="176" cy="168" r="32" fill="none" stroke="#4f46e5" stroke-linecap="round" stroke-linejoin="round" stroke-width="16"></circle>
    <path d="M128,224a60,60,0,0,1,96,0" fill="none" stroke="#4f46e5" stroke-linecap="round" stroke-linejoin="round" stroke-width="16"></path>
    <circle cx="176" cy="64" r="32" fill="none" stroke="#4f46e5" stroke-linecap="round" stroke-linejoin="round" stroke-width="16"></circle>
    <path d="M128,120a60,60,0,0,1,96,0" fill="none" stroke="#4f46e5" stroke-linecap="round" stroke-linejoin="round" stroke-width="16"></path>
</svg>